<svg xmlns="http://www.w3.org/2000/svg" xmlns:xlink="http://www.w3.org/1999/xlink" version="1.1" id="Layer_1" x="0px" y="0px" width="100%" viewBox="0 0 416 115" enable-background="new 0 0 416 115" xml:space="preserve" style="&#10;">

<path fill="#7DAB41" opacity="1.000000" stroke="none" d=" M133.837051,63.983749   C134.506744,64.455727 135.176437,64.927696 135.919922,66.037605   C127.862114,77.331696 116.781326,83.859589 104.679794,88.907722   C103.892311,89.236229 102.474106,89.031181 101.797989,88.501541   C91.551926,80.474960 79.581161,76.153725 67.374649,72.342255   C66.259232,71.993965 64.992531,72.130173 63.796085,72.041397   C75.028328,77.102905 86.234863,81.845573 95.794640,91.603767   C92.920486,92.243866 90.951439,92.682396 88.575623,93.069870   C87.081566,92.956139 85.994270,92.893448 84.768448,92.539055   C73.226685,81.134789 59.610119,74.576889 43.938606,72.203384   C56.637424,76.416992 67.675278,83.021500 75.443718,93.914505   C70.669388,94.028397 66.343735,94.074173 61.587238,94.076225   C59.831959,93.992462 58.366520,94.311882 57.205105,93.856277   C46.711227,89.739693 35.806629,86.336090 25.983252,80.965912   C19.801767,77.586655 15.263795,71.201012 10.425199,66.096420   C27.053284,66.215988 43.244698,66.403214 59.436115,66.590431   C53.568974,66.360397 47.622200,65.732468 41.699722,64.926079   C41.033112,64.835312 40.503830,63.735924 40.316742,63.064529   C44.516747,61.987850 48.310871,60.950893 52.529449,59.949310   C65.286247,58.971439 77.618599,57.958191 90.413651,56.963467   C96.255554,57.277931 101.634758,57.573872 107.424393,57.921288   C116.502228,59.976418 125.169640,61.980083 133.837051,63.983749  z"/>
<path fill="#00B6B5" opacity="1.000000" stroke="none" d=" M176.884903,55.852715   C168.451859,61.651787 162.317902,60.843712 155.192154,56.766201   C145.757935,51.367744 144.478333,35.535961 151.182312,27.300514   C159.157242,17.503792 172.897766,15.651438 182.348282,24.472200   C186.156326,28.026505 188.662796,34.171265 189.477173,39.487068   C191.152222,50.420734 190.430817,61.448101 183.954987,71.181007   C179.555222,77.793671 170.012070,80.982697 161.510971,78.794022   C153.498032,76.731033 149.341446,71.919800 148.185013,63.003136   C151.366882,63.003136 154.519394,62.795364 157.618271,63.112087   C158.753830,63.228149 159.736984,64.624428 160.834091,65.371437   C163.115814,66.925018 165.464401,69.682671 167.716019,69.615509   C170.013290,69.546989 172.884949,67.113052 174.302841,64.932816   C175.895081,62.484478 176.141129,59.160671 176.884903,55.852715  M173.984512,32.486732   C171.814590,29.313198 168.568054,29.552626 165.537445,30.272415   C161.261032,31.288084 160.204681,35.246933 159.150711,38.782589   C158.110565,42.271812 161.620651,48.234756 165.082260,49.578255   C169.189041,51.172146 173.101868,49.244644 175.628998,44.958439   C178.207108,40.585709 176.698120,36.855099 173.984512,32.486732  z"/>
<path fill="#00B6B5" opacity="1.000000" stroke="none" d=" M233.996063,53.632164   C232.059814,59.534706 230.648590,65.238342 228.078552,70.360535   C223.540894,79.404236 214.797638,80.298866 206.366852,78.742928   C198.420624,77.276413 193.820007,74.055840 192.093979,63.389320   C195.830093,63.389320 199.535355,63.389320 203.653091,63.389320   C205.307358,67.238083 207.636078,70.945778 213.192535,69.362068   C217.909729,68.017578 221.001175,62.381508 220.821762,55.232601   C213.749451,61.156612 206.664032,61.305321 198.900299,56.586849   C189.951431,51.148109 188.268982,35.227497 195.422485,27.082523   C203.964691,17.356369 216.551758,15.903141 226.310684,24.227226   C231.683228,28.809826 233.451263,35.720345 233.956024,42.691242   C234.207748,46.167435 233.999405,49.676941 233.996063,53.632164  M220.692139,42.788330   C221.327408,36.198654 218.229370,30.460424 213.789566,30.003300   C208.106613,29.418180 204.797470,32.071564 203.227905,38.472000   C202.289200,42.299877 205.516968,48.356091 209.207520,49.691444   C213.727203,51.326794 217.479828,49.166496 220.692139,42.788330  z"/>
<path fill="#233B77" opacity="1.000000" stroke="none" d=" M329.000000,50.029274   C329.000000,46.559322 329.000000,43.582870 329.000000,40.262875   C326.689240,40.108315 324.615540,39.969616 322.276428,39.813164   C322.276428,37.319256 322.276428,34.916138 322.276428,32.065414   C324.399384,32.065414 326.470520,32.065414 328.990112,32.065414   C328.990112,27.897247 328.990112,24.144598 328.990112,20.208706   C332.717529,20.208706 335.999023,20.208706 339.742065,20.208706   C339.742065,23.861942 339.742065,27.601803 339.742065,31.669346   C344.589478,31.669346 348.988068,31.669346 353.853149,31.669346   C353.853149,28.026585 353.853149,24.280510 353.853149,20.274790   C358.037872,20.274790 361.769531,20.274790 365.964294,20.274790   C365.964294,24.093552 365.964294,27.843952 365.964294,31.842207   C368.697662,31.842207 370.981323,31.842207 373.633240,31.842207   C373.633240,34.500862 373.633240,36.904961 373.633240,39.793125   C371.453827,39.903057 369.038727,40.024879 366.004333,40.177940   C366.004333,46.783607 365.871246,53.391655 366.141418,59.983170   C366.184143,61.025444 367.886993,62.399483 369.113037,62.883183   C370.387787,63.386120 372.015167,62.995289 373.330231,62.995289   C373.639130,63.567513 373.951202,63.868919 373.917267,64.124352   C373.445404,67.676201 376.346527,73.083138 369.145416,72.996704   C357.248444,72.853905 354.350189,70.073555 354.073425,63.355495   C353.759766,55.742367 354.001007,48.106373 354.001007,40.243286   C349.222687,40.243286 344.827087,40.243286 340.002686,40.243286   C340.002686,46.216702 339.850983,52.010323 340.052673,57.791622   C340.202698,62.091110 341.366699,62.783131 347.494568,63.244293   C347.646271,63.529530 347.912476,63.811832 347.924713,64.104729   C348.278961,72.602364 348.117371,73.047752 342.669678,72.959358   C332.891876,72.800682 329.083008,70.298347 329.008942,63.518124   C328.961609,59.186821 329.000031,54.854584 329.000000,50.029274  z"/>
<path fill="#233B77" opacity="1.000000" stroke="none" d=" M249.992920,77.874084   C246.607788,79.135406 243.228271,79.932518 239.328613,80.852310   C239.328613,64.099312 239.328613,48.390923 239.328613,31.990889   C242.920395,32.785389 247.038483,30.352503 250.805466,34.076000   C257.273163,29.825893 264.772736,28.825788 271.657043,34.137096   C274.735291,36.511990 277.795593,40.554741 278.329742,44.210831   C279.208679,50.226761 279.113556,56.850388 277.473907,62.666649   C274.557953,73.010368 262.572479,75.507286 253.691635,71.217598   C252.558044,70.670044 251.458954,70.051102 249.998535,69.283791   C249.998535,72.192894 249.998535,74.801384 249.992920,77.874084  M260.615112,40.995724   C259.740814,40.850021 258.846100,40.504982 257.995605,40.591946   C253.491135,41.052525 251.313171,43.959339 250.400253,48.095959   C249.331573,52.938408 249.499695,57.783817 253.154816,61.352154   C254.687332,62.848267 257.884613,63.644333 260.066132,63.265942   C264.950653,62.418690 268.067139,58.330818 267.817017,52.466873   C267.624481,47.953831 266.936005,42.893414 260.615112,40.995724  z"/>
<path fill="#233B77" opacity="1.000000" stroke="none" d=" M413.000000,56.990379   C413.000000,62.071445 413.000000,66.656815 413.000000,72.433144   C409.689148,71.818924 405.690979,71.034721 401.672638,70.372826   C400.988739,70.260170 400.224884,70.709450 399.487030,70.835159   C395.189362,71.567345 390.908661,72.693794 386.583984,72.905128   C379.742615,73.239441 374.453308,68.037689 374.081848,61.289867   C373.779816,55.802700 378.664917,50.032257 384.529785,49.022697   C388.689209,48.306709 392.929901,47.928177 396.994354,46.864262   C398.529572,46.462399 400.617920,44.632481 400.721954,43.316616   C400.822601,42.043209 398.903137,39.722080 397.508087,39.391212   C393.867462,38.527744 389.988098,38.121235 387.930389,42.766850   C387.477631,43.788933 385.856110,44.766273 384.675873,44.898415   C381.897430,45.209507 379.060455,44.998127 376.215210,44.998127   C377.237213,35.929947 382.440857,31.090380 390.946014,31.004229   C393.610901,30.977236 396.276428,30.981329 398.941406,31.003439   C407.776764,31.076735 412.667786,35.906437 412.978027,45.001888   C413.108551,48.828617 412.999939,52.663498 413.000000,56.990379  M391.659271,64.999496   C399.122711,64.801376 401.944458,61.257198 400.303223,53.948738   C397.171753,54.622635 393.896088,54.948723 390.951324,56.112247   C389.345520,56.746719 387.185486,58.883022 387.282043,60.194191   C387.405701,61.872555 389.550934,63.402012 391.659271,64.999496  z"/>
<path fill="#233B77" opacity="1.000000" stroke="none" d=" M282.475891,65.953827   C280.253326,51.420773 286.869934,49.920788 297.330139,48.019451   C299.888062,47.554504 302.547272,47.532913 305.036224,46.854046   C306.176117,46.543140 307.859406,45.080631 307.805817,44.234829   C307.712860,42.767891 306.823364,40.774296 305.631897,40.054779   C300.681213,37.065125 296.700684,38.877861 294.221710,44.997566   C291.301331,44.997566 288.315674,45.007507 285.330200,44.989796   C284.675507,44.985916 284.021423,44.883614 283.355652,44.825645   C285.422211,34.224468 289.401062,30.912237 300.305023,31.047150   C304.206726,31.095427 308.219940,31.210522 311.970337,32.145294   C316.817535,33.353428 319.902435,38.049816 319.980896,43.178131   C320.064819,48.663006 319.932190,54.151276 320.022888,59.635933   C320.087585,63.549580 320.365051,67.459717 320.578613,72.036690   C316.727112,71.009987 312.059967,74.039070 308.131500,69.746826   C298.411682,75.840561 287.681244,74.493431 282.475891,65.953827  M306.581665,54.020645   C303.585510,54.683941 300.379517,54.901833 297.671906,56.177536   C296.047211,56.943024 294.152405,59.465313 294.306946,61.004440   C294.453796,62.467121 296.996796,64.633972 298.681488,64.832275   C305.602966,65.647026 308.803101,61.477455 306.581665,54.020645  z"/>
<path fill="#233B77" opacity="1.000000" stroke="none" d=" M133.807922,63.639225   C125.169640,61.980083 116.502228,59.976418 107.268051,57.635567   C104.113731,54.500114 101.526192,51.701859 98.848366,48.575951   C92.429214,40.625565 86.100342,33.002827 79.305779,24.819185   C73.682373,30.585938 68.924156,35.632584 63.948383,40.454754   C62.646633,41.716324 60.668800,42.280270 58.634975,43.094078   C55.216156,43.004559 55.726971,41.798100 57.304985,40.186119   C61.599934,35.798706 65.880806,31.397511 70.167259,27.001778   C74.876175,20.743227 81.157074,19.552221 88.740601,19.750780   C95.585075,19.929993 100.513023,21.052198 104.914497,27.099768   C113.986526,39.564606 124.096115,51.274307 133.807922,63.639225  z"/>
<path fill="#243C77" opacity="1.000000" stroke="none" d=" M9.988528,66.164062   C15.263795,71.201012 19.801767,77.586655 25.983252,80.965912   C35.806629,86.336090 46.711227,89.739693 57.205105,93.856277   C58.366520,94.311882 59.831959,93.992462 61.806149,94.444862   C71.298058,94.278465 80.140221,93.699692 88.982384,93.120918   C90.951439,92.682396 92.920486,92.243866 95.794640,91.603767   C86.234863,81.845573 75.028328,77.102905 63.796085,72.041397   C64.992531,72.130173 66.259232,71.993965 67.374649,72.342255   C79.581161,76.153725 91.551926,80.474960 101.797989,88.501541   C102.474106,89.031181 103.892311,89.236229 104.679794,88.907722   C116.781326,83.859589 127.862114,77.331696 136.060410,66.330399   C137.379578,64.552010 138.632065,63.118763 140.299103,61.683121   C140.837250,61.811501 140.960846,61.942276 141.084442,62.073051   C135.596466,75.114967 125.677185,84.107613 114.036728,91.459373   C97.769272,101.733414 79.502266,104.051758 61.165707,101.718918   C36.190067,98.541420 16.890633,85.634445 5.146694,62.245926   C5.405375,61.546783 5.516944,61.405617 5.628513,61.264450   C6.546950,62.466820 7.465387,63.669189 8.680943,64.943314   C8.978061,65.015060 8.945246,64.951042 9.002493,65.234177   C9.369335,65.732895 9.678931,65.948479 9.988528,66.164062  z"/>
<path fill="#F2BB18" opacity="1.000000" stroke="none" d=" M70.069099,26.579191   C65.880806,31.397511 61.599934,35.798706 57.304985,40.186119   C55.726971,41.798100 55.216156,43.004559 58.634846,43.445747   C59.042782,44.569046 59.084358,45.270134 58.852791,46.294189   C51.055992,47.684311 43.532330,48.751476 36.004814,49.431435   C36.300964,47.048351 36.600967,45.052467 37.074856,42.750671   C38.543819,39.621418 39.838894,36.798084 41.133972,33.974747   C48.302101,26.686165 56.983860,23.746393 67.090263,25.035681   C68.082016,25.162199 69.012184,25.771431 70.069099,26.579191  z"/>
<path fill="#7EAC41" opacity="1.000000" stroke="none" d=" M21.851652,34.033653   C13.742970,31.051647 11.053577,20.412024 22.507343,11.241161   C30.259306,19.610909 33.195103,23.410332 26.904705,32.901230   C26.890499,33.607292 26.718452,33.800823 26.196417,33.643280   C25.241804,33.558178 24.637943,33.824829 23.781487,33.980091   C22.969812,33.923683 22.410732,33.978668 21.851652,34.033653  z"/>
<path fill="#7EAC41" opacity="1.000000" stroke="none" d=" M18.851727,47.033497   C10.002621,50.308422 3.302147,41.437611 4.191326,33.697380   C12.828005,30.266176 18.889688,32.377216 21.599941,40.209969   C22.433319,43.619144 21.802351,45.903633 18.851727,47.033497  z"/>
<path fill="#7EAC41" opacity="1.000000" stroke="none" d=" M26.547169,33.995033   C26.718452,33.800823 26.890499,33.607292 27.124651,33.385479   C30.929094,30.314655 35.142876,29.655407 39.652752,31.117741   C40.264919,31.316238 40.570553,32.460087 41.076046,33.570480   C39.838894,36.798084 38.543819,39.621418 36.725487,42.877583   C33.184814,43.884506 30.167400,44.458607 27.086853,44.727180   C26.678061,43.985882 26.332403,43.550106 25.637512,42.892654   C25.707911,39.778996 26.127539,36.887016 26.547169,33.995033  z"/>
<path fill="#4A4A4C" opacity="1.000000" stroke="none" d=" M224.626816,83.463043   C224.032364,85.005394 223.159256,86.328842 222.203918,87.776909   C223.065933,89.006401 223.993576,90.329521 225.408569,92.347717   C226.213150,90.220367 226.565384,88.583397 227.409775,87.260559   C228.208466,86.009308 229.396408,84.432503 230.644791,84.189674   C232.156601,83.895599 233.911682,84.852180 235.186478,85.173149   C237.914795,81.685394 239.629654,81.454857 242.881897,86.283737   C240.965988,86.718086 239.049942,87.151871 237.133896,87.585648   C237.430984,88.744301 237.728073,89.902962 238.146606,91.535294   C239.926895,90.384705 241.104630,89.623550 242.501160,88.720978   C243.893906,92.699326 240.846771,93.736923 238.839264,93.723503   C236.399994,93.707199 233.991165,92.093292 231.524231,91.312477   C230.858719,91.101837 229.780289,91.116745 229.316498,91.518661   C225.617111,94.724503 222.565384,92.991539 219.504593,90.371071   C219.104980,91.272446 218.713516,92.155418 218.322052,93.038391   C218.046036,92.989944 217.770004,92.941505 217.493988,92.893059   C217.493988,90.089478 217.493988,87.285896 217.493988,85.364685   C219.789597,84.654472 222.068878,83.949303 224.626816,83.463043  z"/>
<path fill="#4A4A4C" opacity="1.000000" stroke="none" d=" M172.688324,92.877182   C171.467804,91.987999 170.630875,91.194221 169.640778,90.255180   C169.067551,91.261116 168.566269,92.140800 167.335220,94.301125   C167.335220,89.983665 167.335220,87.155952 167.335220,85.144341   C169.955948,84.590652 172.285919,84.098396 175.363922,83.448105   C174.230957,84.966263 173.344757,86.153778 172.216614,87.665474   C173.129501,88.925789 174.167496,90.358833 176.054108,92.963448   C176.054108,89.055000 176.054108,86.665070 176.054108,85.220619   C178.977371,84.595024 181.302612,84.097412 184.443710,83.425201   C183.207962,84.970642 181.755066,86.032883 181.515396,87.320877   C181.315735,88.393898 182.539795,89.731834 182.977020,90.631058   C185.093216,88.265770 186.984451,86.151909 188.875702,84.038055   C190.387634,86.735077 191.899551,89.432098 194.142334,93.432846   C191.813538,92.694000 190.924835,92.389229 190.022537,92.132217   C189.124802,91.876518 187.736893,91.174492 187.381912,91.516693   C183.951782,94.823357 181.279633,92.989342 179.889511,91.517365   C176.902939,92.154854 174.987427,92.563728 172.688324,92.877182  z"/>
<path fill="#4A4A4C" opacity="1.000000" stroke="none" d=" M343.725220,92.687180   C341.953918,92.951347 340.472687,93.087219 339.012115,92.968674   C337.454071,92.842216 335.915497,92.475349 333.436951,92.055725   C333.184021,91.652443 332.361298,90.340607 331.538574,89.028763   C330.678406,90.301407 329.818207,91.574074 328.475159,93.561165   C328.475159,89.980988 328.475159,87.097923 328.475159,84.073814   C330.196320,83.689522 331.408112,91.192055 333.352997,84.434685   C333.421478,84.196777 334.195770,84.035240 334.633575,84.050774   C337.749969,84.161346 341.336609,83.406746 343.863190,84.702545   C347.218536,86.423416 347.014526,89.772926 343.725220,92.687180  z"/>
<path fill="#4A4A4C" opacity="1.000000" stroke="none" d=" M374.255005,84.763107   C373.885590,85.653915 373.342377,86.514198 372.579529,86.811958   C371.587036,87.199364 370.420135,87.140022 369.328308,87.272934   C369.566345,88.532562 369.804382,89.792198 370.119904,91.461815   C371.997925,90.333824 373.187744,89.619186 374.377563,88.904556   C374.748657,89.369644 375.119720,89.834732 375.490784,90.299820   C373.897705,91.510582 372.291077,93.721771 370.714661,93.700455   C368.276672,93.667473 365.916840,91.710342 363.411438,91.349205   C361.942017,91.137390 360.254761,92.436913 358.665466,93.056595   C358.230042,92.766960 357.794586,92.477325 357.359131,92.187691   C358.903229,89.474274 360.447327,86.760849 361.991425,84.047424   C363.263306,84.904427 364.535156,85.761429 366.074219,86.798470   C367.803894,85.400993 369.315643,80.314804 374.255005,84.763107  z"/>
<path fill="#4A4A4C" opacity="1.000000" stroke="none" d=" M382.843018,84.081024   C383.975891,84.433685 384.725372,84.844681 385.645172,85.349106   C390.475311,81.766121 391.031036,81.815231 393.860870,86.354858   C391.946259,86.782936 390.022186,87.213142 388.098083,87.643341   C388.426453,88.788437 388.754822,89.933540 389.205902,91.506592   C390.965088,90.375641 392.140961,89.619698 393.469391,88.765671   C393.555084,93.025391 391.824951,94.387344 388.573303,93.208458   C386.865051,92.589134 384.996094,92.413162 382.179718,91.823387   C382.046539,91.576782 381.361176,90.307983 380.675842,89.039185   C379.770844,90.278549 378.865845,91.517906 377.547852,93.322853   C377.547852,90.008713 377.547852,87.125847 377.547852,83.854729   C379.120331,84.522491 380.901459,90.724991 382.843018,84.081024  z"/>
<path fill="#4A4A4C" opacity="1.000000" stroke="none" d=" M248.890015,89.056351   C247.638626,90.309242 246.801575,91.594139 245.451843,93.666023   C245.451843,89.974846 245.451843,87.092201 245.451843,84.068077   C247.206696,83.792625 248.407883,91.103020 250.422485,84.450447   C250.483841,84.247856 252.309540,84.579567 254.426956,84.753929   C256.375336,82.823006 259.415863,81.204941 262.197723,86.307312   C260.436554,87.814621 253.607239,84.302704 257.364594,91.359543   C258.872772,90.383919 260.041412,89.627930 261.617188,88.608559   C261.749451,89.818306 262.097839,91.116638 261.870422,91.226868   C260.206390,92.033348 258.450073,93.030441 256.677399,93.126320   C254.843201,93.225525 252.957764,92.377083 250.143402,91.721581   C250.132141,91.686234 249.718246,90.387299 248.890015,89.056351  z"/>
<path fill="#102546" opacity="1.000000" stroke="none" d=" M25.986744,43.114334   C26.332403,43.550106 26.678061,43.985882 26.928940,45.060593   C26.218586,48.187668 25.603012,50.675800 24.808483,53.520267   C24.417154,57.196632 24.204781,60.516663 23.605141,63.911091   C22.175840,63.930874 21.133812,63.876263 20.084108,63.423367   C20.351614,60.658272 20.626791,58.291470 20.901970,55.924664   C20.266182,53.218651 19.630394,50.512638 18.923164,47.420059   C21.802351,45.903633 22.433319,43.619144 21.906853,40.375740   C21.896187,38.268818 21.940235,36.571926 21.917969,34.454346   C22.410732,33.978668 22.969812,33.923683 23.766857,34.422295   C24.004824,38.190674 24.004824,41.405449 24.004824,45.580788   C25.093918,44.225437 25.540331,43.669888 25.986744,43.114334  z"/>
<path fill="#4A4A4C" opacity="1.000000" stroke="none" d=" M396.847412,92.843185   C396.266144,89.935936 396.115143,87.071640 395.937531,83.702057   C397.772156,85.110222 398.916443,86.637817 400.138245,86.702583   C400.980774,86.747246 401.930634,84.767334 403.758026,82.588905   C403.898315,85.224831 403.950073,86.179276 403.999603,87.133842   C404.040619,87.923958 404.078918,88.714218 404.087860,88.892563   C405.510681,87.422150 407.150696,85.727310 408.790680,84.032471   C410.336609,86.676208 411.882507,89.319954 413.456482,92.011673   C409.198303,92.365150 405.545959,92.668335 402.139740,92.951096   C401.140930,91.553284 400.243561,90.297462 399.346191,89.041641   C398.656677,90.323143 397.967194,91.604637 396.847412,92.843185  z"/>
<path fill="#4A4A4C" opacity="1.000000" stroke="none" d=" M264.029053,91.567505   C264.006104,88.829002 264.006104,86.527847 264.006104,84.226692   C266.787018,89.748573 269.126129,85.009293 271.673584,83.005302   C271.896393,85.963417 272.030609,87.745331 272.117065,88.893181   C273.489349,87.463173 275.135742,85.747528 276.782135,84.031883   C278.333527,86.695358 279.884918,89.358826 282.148254,93.244598   C278.940735,92.374001 277.104065,91.397743 275.352173,91.531555   C273.524658,91.671143 271.778900,92.880432 270.179993,93.546043   C269.075836,91.580673 268.361450,90.309067 267.647034,89.037460   C267.040527,90.143623 266.511719,91.307823 265.764221,92.308655   C265.608398,92.517296 264.643860,92.121880 264.029053,91.567505  z"/>
<path fill="#4A4A4C" opacity="1.000000" stroke="none" d=" M157.332123,92.565048   C156.461182,91.496826 155.470352,90.034851 155.294708,90.126984   C154.079453,90.764442 153.033981,91.725540 151.291718,93.083145   C151.161880,90.200417 151.038116,87.452194 150.893433,84.239326   C154.777878,84.170067 158.375732,83.971764 161.954086,84.154869   C162.673203,84.191666 163.546036,85.579491 163.949509,86.516068   C164.770462,88.421829 165.319611,90.444687 165.844879,92.013435   C163.052414,92.310104 160.320923,92.600296 157.332123,92.565048  z"/>
<path fill="#4A4A4C" opacity="1.000000" stroke="none" d=" M356.188232,84.692902   C356.628662,86.652893 357.094055,88.363419 356.902802,89.997078   C356.764069,91.182549 355.784851,93.202576 355.130280,93.222740   C353.023682,93.287651 350.893799,92.598099 348.772919,92.199486   C348.822815,91.687805 348.872711,91.176125 348.922577,90.664452   C349.717987,90.334358 350.513367,90.004257 351.381287,89.644066   C354.692078,83.714592 354.692078,83.714592 356.188232,84.692902  z"/>
<path fill="#4A4A4C" opacity="1.000000" stroke="none" d=" M302.040527,86.063385   C301.081543,85.781288 300.554413,85.558372 300.027283,85.335449   C300.052673,85.065941 300.078064,84.796425 300.103485,84.526917   C304.986084,84.526917 309.868652,84.526917 314.064270,84.526917   C313.122925,87.118538 312.078064,89.995087 310.498383,94.344086   C310.169830,90.847610 309.970917,88.730743 309.739288,86.265678   C308.400879,86.173241 307.008362,86.077072 305.308441,85.959679   C305.094055,88.418648 304.900391,90.639961 304.706757,92.861267   C304.343353,92.917206 303.979950,92.973145 303.616577,93.029083   C303.235168,90.726906 302.853790,88.424728 302.040527,86.063385  z"/>
<path fill="#4A4A4C" opacity="1.000000" stroke="none" d=" M291.973267,90.092499   C293.489960,88.067566 295.006683,86.042633 296.523376,84.017700   C297.856537,86.364182 299.199890,88.704987 300.512970,91.062645   C300.736633,91.464294 300.830505,91.938232 301.090637,92.683266   C300.148193,92.756340 298.952271,93.148705 298.699615,92.818764   C297.328461,91.028252 296.162903,89.510376 294.639008,92.632027   C293.762299,92.023643 292.885590,91.415260 292.004639,90.420898   C292.000366,90.034920 291.973267,90.092499 291.973267,90.092499  z"/>
<path fill="#4A4A4C" opacity="1.000000" stroke="none" d=" M210.270035,84.792160   C211.346878,87.499779 212.140350,89.930840 212.816269,92.001724   C210.071136,92.001724 207.238678,92.001724 203.873505,92.001724   C206.204453,89.893288 203.078445,83.742920 210.270035,84.792160  z"/>
<path fill="#4A4A4C" opacity="1.000000" stroke="none" d=" M314.055969,91.945435   C315.467133,89.038025 316.915253,86.532005 318.363373,84.025986   C319.820007,86.471100 321.285034,88.911308 322.720795,91.368622   C322.870422,91.624680 322.846619,91.982056 322.913208,92.346817   C319.963074,92.346817 317.027985,92.346817 314.055969,91.945435  z"/>
<path fill="#247139" opacity="1.000000" stroke="none" d=" M20.582363,56.067551   C20.626791,58.291470 20.351614,60.658272 19.637897,63.500877   C15.781323,64.301468 12.363285,64.626259 8.945246,64.951050   C8.945246,64.951042 8.978061,65.015060 9.003272,65.040604   C12.773240,62.114246 16.517998,59.162342 20.582363,56.067551  z"/>
<path fill="#4A4A4C" opacity="1.000000" stroke="none" d=" M292.029114,90.021271   C289.987579,90.577194 287.917297,91.146759 285.521851,91.805801   C285.521851,90.174057 285.521851,87.437622 285.521851,83.902534   C287.489563,84.196449 289.765869,84.379761 291.888336,85.050034   C292.156403,85.134682 291.616882,87.776772 291.712402,89.663239   C291.973267,90.092499 292.000366,90.034920 292.029114,90.021271  z"/>
<path fill="#4A4A4C" opacity="1.000000" stroke="none" d=" M201.639771,92.590698   C199.403931,90.249390 197.440399,87.600243 195.412643,84.864449   C199.015015,84.864449 201.756561,84.864449 204.119400,84.864449   C203.506882,86.923027 202.709473,89.602951 201.639771,92.590698  z"/>
<path fill="#243C77" opacity="1.000000" stroke="none" d=" M5.105460,61.881271   C4.690187,61.511169 4.463259,60.947754 4.236330,60.384335   C4.573649,60.532497 4.910968,60.680656 5.438400,61.046635   C5.516944,61.405617 5.405375,61.546783 5.105460,61.881271  z"/>
<path fill="#243C77" opacity="1.000000" stroke="none" d=" M140.550507,61.465675   C140.864532,60.995945 141.341660,60.741268 141.818802,60.486595   C141.757370,60.943165 141.695923,61.399731 141.359467,61.964676   C140.960846,61.942276 140.837250,61.811501 140.550507,61.465675  z"/>
<path fill="#247339" opacity="1.000000" stroke="none" d=" M23.992409,63.836697   C24.204781,60.516663 24.417154,57.196632 25.194389,53.447243   C29.175724,51.951469 32.592197,50.885056 36.008671,49.818638   C43.532330,48.751476 51.055992,47.684311 59.300316,46.306648   C62.662189,46.013622 65.318176,45.856789 67.941986,46.079304   C78.279701,46.956013 88.607292,47.951923 98.938644,48.903603   C101.526192,51.701859 104.113731,54.500114 106.857620,57.584095   C101.634758,57.573872 96.255554,57.277931 90.225464,56.575283   C81.378441,56.447460 73.160423,56.455505 64.995018,57.114895   C60.651321,57.465668 56.398716,58.944366 52.104996,59.913940   C48.310871,60.950893 44.516747,61.987850 39.895519,63.032452   C34.043079,63.305634 29.017744,63.571163 23.992409,63.836697  z"/>
<path fill="#284274" opacity="1.000000" stroke="none" d=" M75.892395,93.846397   C67.675278,83.021500 56.637424,76.416992 43.938606,72.203384   C59.610119,74.576889 73.226685,81.134789 84.361053,92.608910   C81.358917,93.262444 78.625656,93.554420 75.892395,93.846397  z"/>


<path fill="#FFFFFF" opacity="1.000000" stroke="none" d=" M75.443718,93.914505   C78.625656,93.554420 81.358917,93.262444 84.499573,92.900612   C85.994270,92.893448 87.081566,92.956139 88.575623,93.069870   C80.140221,93.699692 71.298058,94.278465 62.236988,94.488594   C66.343735,94.074173 70.669388,94.028397 75.443718,93.914505  z"/>








</svg>