<svg xmlns="http://www.w3.org/2000/svg" xmlns:xlink="http://www.w3.org/1999/xlink" version="1.1" id="Layer_1" x="0px" y="0px" width="100%" viewBox="0 0 402 200" enable-background="new 0 0 402 200" xml:space="preserve">

<path fill="#D1292A" opacity="1.000000" stroke="none" d=" M403.000000,136.600006   C401.801575,137.736221 400.303619,138.222687 399.449982,139.246399   C387.953583,153.033493 374.380768,163.959869 357.045197,169.409714   C345.944611,172.899460 335.290070,171.446350 325.542816,164.817932   C322.695038,162.881378 321.573181,160.945831 323.294983,157.043381   C331.253296,139.005661 345.441101,130.796783 364.460571,128.901169   C377.481018,127.603432 389.808899,130.526581 402.615417,133.204285   C403.000000,134.066666 403.000000,135.133347 403.000000,136.600006  z"/>
<path fill="#D1292A" opacity="1.000000" stroke="none" d=" M0.999999,117.468582   C1.669324,116.482178 2.672090,116.104752 2.958086,115.425529   C7.427632,104.810547 18.963528,97.014893 30.397707,97.000824   C36.105419,96.993805 41.813148,96.999603 47.743904,96.999603   C47.743904,103.159081 47.743904,107.884781 47.743904,112.095680   C43.250969,111.113899 38.827797,109.124306 34.579597,109.445915   C27.214724,110.003479 24.855970,116.113007 24.390608,122.434219   C23.739433,131.279419 25.857506,142.022827 36.554348,143.435120   C41.614731,144.103241 47.142284,141.297180 52.444271,140.007965   C53.323143,139.794235 54.130417,139.286072 55.485672,138.685989   C54.203846,143.380386 53.133854,147.520462 51.906250,151.613235   C51.652065,152.460678 50.969688,153.525772 50.218700,153.826584   C37.411831,158.956436 18.499023,159.550781 7.726265,147.123825   C5.397398,144.437347 3.595455,141.294067 1.275401,138.680603   C1.000000,131.979050 1.000000,124.958107 0.999999,117.468582  z"/>
<path fill="#D02829" opacity="1.000000" stroke="none" d=" M393.535339,0.999997   C394.482697,1.937830 394.733917,3.164431 395.485443,3.766849   C400.532318,7.812359 402.379181,13.700792 400.046906,18.864075   C397.024231,25.555929 390.406982,29.326740 384.116394,27.942022   C378.585632,26.724562 373.120575,20.383793 373.041077,14.789276   C372.957458,8.905189 377.232361,5.387380 380.340393,1.227858   C384.356903,1.000000 388.713806,1.000000 393.535339,0.999997  M379.816193,23.218571   C384.857788,25.756678 389.834229,26.399614 395.194427,22.210052   C399.236938,14.973379 399.092285,10.096975 394.720642,6.238846   C389.773865,1.873129 385.641510,1.896844 378.779449,6.813299   C374.844269,12.227242 374.913025,17.511631 379.816193,23.218571  z"/>
<path fill="#D1292A" opacity="1.000000" stroke="none" d=" M347.831757,194.219879   C348.709381,191.025085 349.587036,187.830292 350.548523,184.330338   C351.392822,184.240448 352.541351,183.889526 353.612457,184.051239   C355.916412,184.399109 359.176178,182.544937 359.987488,186.669388   C360.767670,190.635437 358.372314,193.622910 355.477295,194.472733   C351.998749,195.493774 351.417633,197.464966 351.002747,200.603455   C349.933319,201.000000 348.866669,201.000000 347.400024,201.000000   C347.329041,198.953232 347.658051,196.906464 347.943665,194.499146   C347.900208,194.138596 347.831757,194.219879 347.831757,194.219879  z"/>
<path fill="#D1292A" opacity="1.000000" stroke="none" d=" M290.952942,188.111511   C287.429016,192.240158 283.905060,196.368820 280.690552,200.748749   C279.611115,201.000000 278.222198,201.000000 276.416656,201.000000   C276.068817,200.510620 275.952271,199.799850 276.233612,199.564240   C283.227020,193.707428 283.234467,193.716324 281.388184,184.392151   C285.882660,182.897293 285.962555,186.238892 286.294128,189.439911   C289.363739,184.043106 289.363739,184.043106 291.862549,185.790543   C291.501251,187.002472 291.227112,187.556992 290.952942,188.111511  z"/>
<path fill="#D1292A" opacity="1.000000" stroke="none" d=" M138.453537,159.763550   C130.355423,161.057297 122.787743,161.411926 115.408066,158.027695   C106.802628,154.081345 99.178894,149.031342 95.996147,139.666306   C93.827492,133.285156 93.964745,126.527786 97.351402,120.521019   C99.426216,116.840996 102.863060,114.870949 107.652802,114.870644   C115.334938,114.870155 121.760269,117.073860 126.808533,122.386490   C124.383278,124.135147 121.225082,125.264023 120.308975,127.368774   C119.209152,129.895630 119.900841,133.259048 120.029007,136.251160   C120.258728,141.614288 123.015938,144.956512 129.012589,146.447998   C136.297318,148.259872 140.920395,146.423660 141.724365,136.146637   C142.181335,130.305420 140.628433,124.091560 138.940842,118.351204   C136.713791,110.775803 131.703735,110.935448 124.753487,112.345390   C110.661354,115.204170 108.150032,109.296936 105.749969,97.153419   C105.158699,94.161789 107.126549,92.574013 112.467720,91.327354   C111.530281,90.047356 110.990219,88.724052 110.005630,88.052254   C91.062775,75.127464 91.259361,54.609249 102.403954,39.476654   C108.566681,31.108643 118.053909,27.271015 128.226990,27.179752   C139.921158,27.074841 151.624115,28.407078 163.330933,28.949133   C166.385223,29.090555 169.468079,28.615128 173.580063,28.357779   C169.312485,33.905399 171.818390,42.385887 164.867523,45.448437   C164.899063,53.348053 166.058121,61.567036 164.697617,69.345314   C162.682861,80.864037 154.057617,87.358002 143.379898,90.933640   C139.076416,92.374741 134.478897,92.916481 130.064270,94.057381   C128.282211,94.517944 126.631447,95.486610 124.920929,96.224037   C124.953384,96.742195 124.985832,97.260345 125.018280,97.778503   C129.698944,98.518021 134.356491,99.647141 139.064468,99.926453   C155.392822,100.895187 165.333817,111.763710 166.171295,127.844948   C167.142090,146.485962 155.440140,155.331284 138.453537,159.763550  M122.037552,74.192093   C126.392769,81.912529 132.705734,82.887268 138.266586,76.146820   C145.896896,66.897949 144.002426,49.954826 135.404175,43.088337   C132.886429,41.077675 129.745544,40.505882 126.539635,42.879196   C120.719734,47.187626 117.217262,57.853878 119.307999,66.521393   C119.879219,68.889488 120.939735,71.139557 122.037552,74.192093  z"/>
<path fill="#D1292A" opacity="1.000000" stroke="none" d=" M364.987000,34.309021   C365.330078,42.876476 366.333832,51.020924 365.834564,59.072163   C365.176331,69.687531 364.117157,80.402580 361.818909,90.761627   C358.620056,105.179787 353.026978,118.613777 342.190277,129.488968   C333.581543,138.128296 323.345947,142.731689 310.774780,144.885681   C307.524231,137.576187 303.772247,130.287369 300.988892,122.645729   C294.819153,105.706902 296.237274,88.663025 302.525970,72.164291   C310.206146,52.014919 323.499847,35.821968 340.163269,22.326021   C346.264526,17.384529 352.463715,12.563947 359.648315,6.872149   C361.567719,16.584204 363.273285,25.214369 364.987000,34.309021  z"/>
<path fill="#D1292A" opacity="1.000000" stroke="none" d=" M229.068268,139.940765   C223.471725,154.181458 211.790268,158.271805 199.762833,156.882416   C198.775116,156.768326 197.493927,155.588409 197.100235,154.603485   C195.837158,151.443588 194.926926,148.142670 193.591766,144.000122   C196.238968,144.000122 198.311935,143.829559 200.346710,144.035797   C204.516205,144.458420 206.822968,141.784790 207.593231,138.595291   C209.295105,131.548248 209.816574,124.393837 207.178833,117.268250   C205.514099,112.771126 202.840118,110.717194 197.954819,110.924187   C193.388992,111.117645 193.332748,114.267899 192.857864,117.389839   C192.613937,118.993492 192.040009,120.583313 192.033569,122.181076   C191.969116,138.167709 191.849258,154.157013 192.109375,170.139633   C192.161743,173.357788 193.748886,176.550964 194.624588,179.741791   C185.834061,179.741791 176.609146,179.741791 168.338379,179.741791   C168.905746,174.637985 169.863556,169.720734 169.924774,164.792343   C170.125412,148.641266 170.000076,132.486145 170.000137,116.332588   C170.000168,106.474182 170.000229,106.474182 166.750275,98.958763   C174.477371,98.508507 182.418365,98.045792 190.557877,97.571503   C191.077545,98.753586 191.722580,100.220871 192.420212,101.807793   C198.649689,98.391243 204.838837,95.499336 212.175537,97.601669   C224.209320,101.049942 229.936951,110.652412 230.810226,122.000595   C231.254257,127.770782 229.749527,133.690918 229.068268,139.940765  z"/>
<path fill="#D1292A" opacity="1.000000" stroke="none" d=" M223.219757,70.424423   C220.874496,60.275650 222.300293,51.248043 228.025360,42.872612   C239.832581,25.599308 265.763702,21.739500 282.173981,34.558483   C293.085419,43.081997 297.078400,54.408619 294.575684,67.244865   C291.842072,81.265144 282.284332,90.323959 268.436737,93.864182   C255.285919,97.226273 242.668030,95.205452 232.628952,85.604149   C228.553879,81.706787 226.393433,75.807518 223.219757,70.424423  M267.666260,48.209053   C265.347870,43.293621 261.557495,40.914860 256.131073,42.054790   C251.753632,42.974365 249.685242,46.320236 248.868942,50.408096   C247.304367,58.243404 247.255219,66.015198 249.988617,73.695335   C251.508011,77.964439 254.181854,80.012756 258.802612,80.067070   C263.615509,80.123650 266.517426,78.134293 268.012360,73.580780   C270.717010,65.342674 269.826019,57.166332 267.666260,48.209053  z"/>
<path fill="#D1292A" opacity="1.000000" stroke="none" d=" M46.035313,53.998825   C50.065468,52.993061 53.849400,52.390179 57.218884,50.869164   C59.133644,50.004818 60.370239,47.638145 61.912239,45.948032   C59.900623,44.302330 57.858883,41.232933 55.882965,41.274742   C49.663021,41.406338 43.467796,42.706291 36.906212,43.602711   C38.808254,39.383415 40.244228,34.154461 43.316734,30.195648   C44.995338,28.032827 49.429333,27.262211 52.646408,27.200405   C58.704521,27.084015 65.051468,26.972368 70.794189,28.583969   C82.916412,31.985872 86.211250,38.984844 86.921875,50.950317   C87.325859,57.752567 86.995003,64.598289 87.000366,71.424438   C87.006493,79.235519 88.379539,80.720352 96.662376,81.190407   C95.837791,83.336250 95.128281,85.335121 94.304291,87.285622   C93.412674,89.396194 92.414223,91.461632 91.338371,93.818382   C83.072205,94.109550 74.748764,94.927773 67.459915,88.199745   C59.964626,81.281166 62.791847,72.570610 61.802914,64.474236   C53.861156,66.046829 50.603390,69.270653 51.010998,75.197304   C51.417519,81.108223 56.063477,80.708717 60.551350,81.257942   C59.009964,84.876640 57.573166,88.413979 55.975693,91.877197   C55.606228,92.678177 54.804710,93.552467 54.003551,93.839912   C45.201160,96.998146 31.592741,91.983482 26.989693,83.798859   C20.088997,71.528801 26.998331,58.918564 41.329586,55.051220   C42.747959,54.668468 44.186413,54.360123 46.035313,53.998825  z"/>
<path fill="#D1292A" opacity="1.000000" stroke="none" d=" M241.213898,124.492775   C235.472046,114.127907 240.089218,100.653839 256.753540,97.168098   C266.285522,95.174240 275.566589,96.499878 284.836029,99.406784   C284.836029,103.744011 284.836029,107.879677 284.836029,112.201805   C280.912506,110.995354 277.091400,109.804985 273.258759,108.652939   C272.325470,108.372406 271.180573,107.784760 270.432495,108.084877   C267.993530,109.063377 265.693085,110.387093 263.339325,111.577988   C265.189697,113.025345 266.841492,115.227608 268.928223,115.776573   C274.859863,117.337044 280.336182,119.370506 285.104797,123.467354   C294.041595,131.145218 292.943970,144.932556 282.835968,151.040359   C273.192108,156.867691 262.747253,156.152084 252.144989,155.695389   C242.140549,155.264450 237.386566,150.597534 237.792038,140.602158   C237.820297,139.905716 237.366211,139.189713 236.952408,137.916733   C245.220886,141.811401 252.960815,145.225800 261.683197,144.981888   C263.858765,144.921066 266.540894,145.784302 267.021088,142.178696   C267.474731,138.772400 265.986816,137.132065 262.863892,135.976334   C257.231079,133.891739 251.683090,131.535873 246.252701,128.969513   C244.393768,128.091003 242.993362,126.242218 241.213898,124.492775  z"/>
<path fill="#D1292A" opacity="1.000000" stroke="none" d=" M201.073456,27.449539   C202.929092,28.824162 204.439606,30.453444 206.066391,32.208118   C209.481842,28.152319 214.623611,26.702526 220.216827,27.157766   C221.552643,27.266493 223.699890,29.170176 223.815765,30.404003   C224.247101,34.997299 223.987900,39.655437 223.987900,44.997707   C220.915207,44.997707 218.144623,45.153572 215.397247,44.967094   C208.468536,44.496819 205.359283,47.546589 205.104782,54.319115   C204.736496,64.119583 204.749741,73.955345 205.170853,83.751518   C205.294067,86.617699 207.356171,89.400536 208.667908,92.554085   C197.977097,92.554085 187.138992,92.554085 175.645767,92.554085   C181.158768,86.540665 181.005463,79.487518 181.000809,72.467216   C180.995834,64.981712 181.024963,57.496101 180.992615,50.010742   C180.960205,42.511776 181.362305,34.904877 176.095169,28.867117   C184.434845,28.473406 192.581589,28.088802 201.073456,27.449539  z"/>
<path fill="#D1292A" opacity="1.000000" stroke="none" d=" M60.999935,120.004593   C60.999939,117.011017 61.255630,114.483902 60.944664,112.028557   C60.366287,107.461731 59.457687,102.936722 58.768162,98.875031   C65.737556,98.495956 73.946899,98.049431 82.580620,97.579834   C82.776131,98.847816 83.038216,100.547546 83.324326,102.403107   C88.659416,99.216362 93.699951,94.920853 100.754639,98.494118   C100.754639,102.888062 100.754639,107.509850 100.754639,112.999657   C99.075447,112.999657 97.341354,112.995239 95.607292,113.000389   C86.707397,113.026810 83.845306,114.770157 83.250290,123.307503   C82.668526,131.654755 83.505104,140.123947 84.087357,148.514053   C84.245697,150.795593 85.733948,152.984833 86.757858,155.587646   C77.123589,155.587646 67.514374,155.587646 57.341068,155.587646   C62.251278,149.904572 60.872776,143.301331 60.980534,136.968307   C61.073891,131.481491 60.999935,125.991837 60.999935,120.004593  z"/>
<path fill="#D1292A" opacity="1.000000" stroke="none" d=" M328.129822,185.757385   C332.913635,182.838974 334.954712,183.206268 337.944183,187.128738   C340.129456,186.046127 342.088776,184.536606 344.253174,184.136505   C347.104034,183.609512 348.599365,184.829773 347.498596,188.236725   C347.010071,189.748734 347.754425,191.659073 347.885437,193.804230   C347.831757,194.219879 347.900208,194.138596 347.933289,194.104034   C344.186066,193.882416 339.979126,197.200058 336.675201,192.713257   C336.590027,192.597595 335.717957,193.169678 335.186066,193.256058   C332.774170,193.647736 330.352692,193.980164 327.934662,194.333923   C327.976349,191.701126 328.018036,189.068329 328.134460,186.059448   C328.209198,185.683350 328.129822,185.757385 328.129822,185.757385  M332.622345,191.937012   C334.460693,191.254776 336.299011,190.572556 338.137360,189.890335   C335.930939,189.311813 334.210327,189.584717 332.574615,190.117996   C332.177612,190.247421 332.060181,191.234589 332.622345,191.937012  M343.838562,186.772430   C342.848114,186.901520 341.857635,187.030624 340.867188,187.159729   C340.942871,187.454269 341.018555,187.748810 341.094208,188.043350   C341.995697,187.849640 342.897156,187.655930 343.838562,186.772430  z"/>
<path fill="#D02829" opacity="1.000000" stroke="none" d=" M263.374634,185.257019   C265.080475,185.598938 266.560852,186.207520 268.003387,186.800552   C268.405212,186.351135 269.593750,185.021759 270.782318,183.692383   C271.392792,184.133652 272.003296,184.574921 272.613770,185.016190   C270.646881,188.200470 268.813721,191.486313 266.560822,194.453461   C266.243195,194.871765 263.875824,193.733719 261.657440,193.080612   C261.196594,193.363510 259.548676,194.375153 257.360992,195.718170   C257.013641,191.212265 256.763275,187.964294 256.392944,183.160339   C258.673584,184.773102 260.306000,185.927460 262.122192,187.211792   C262.056610,187.319611 262.602905,186.421646 263.374634,185.257019  z"/>
<path fill="#D1282A" opacity="1.000000" stroke="none" d=" M220.076019,187.955643   C219.039307,189.347565 218.101410,190.829636 216.937363,192.105392   C215.829132,193.320007 214.484833,194.319199 212.655609,195.932220   C212.188004,193.579742 211.923309,192.248047 211.598434,190.613632   C210.552582,192.830444 209.621536,194.803909 208.690491,196.777374   C207.982651,196.114288 207.274811,195.451202 206.566986,194.788116   C205.947418,191.324600 205.327866,187.861099 204.676392,184.219208   C205.727203,184.161469 207.015442,184.090683 208.601151,184.003571   C208.826920,185.733276 209.032883,187.311218 209.267151,189.105972   C210.840393,187.274521 212.331253,185.538986 214.496872,183.017944   C214.844696,185.757187 215.042770,187.317093 215.253250,188.974670   C217.998642,188.465057 215.639603,182.197021 220.732422,184.596039   C220.919952,184.931931 221.009476,184.904556 220.691467,185.080017   C220.228683,186.202469 220.083908,187.149490 219.972992,188.060944   C220.006866,188.025375 220.076019,187.955643 220.076019,187.955643  z"/>
<path fill="#D1292A" opacity="1.000000" stroke="none" d=" M290.971100,188.514862   C291.227112,187.556992 291.501251,187.002472 291.912598,186.170746   C292.465424,185.647354 292.867157,185.218033 293.299133,185.185059   C295.911346,184.985733 298.530487,184.876984 301.147308,184.737961   C301.125305,187.056122 301.938568,189.938049 300.856750,191.540894   C299.670532,193.298447 296.746216,194.742142 294.561340,194.767410   C291.188538,194.806412 290.821136,191.738098 290.971100,188.514862  z"/>
<path fill="#D1292A" opacity="1.000000" stroke="none" d=" M250.998001,184.002716   C255.256256,183.791901 255.096863,186.452652 254.978165,189.018692   C254.786163,193.169678 251.762283,194.635101 248.413925,194.782272   C247.009186,194.844009 244.121506,192.412033 244.296432,191.822556   C245.104156,189.100677 246.673462,186.579788 248.182343,184.117081   C248.417404,183.733398 249.751266,184.022934 250.998001,184.002716  z"/>
<path fill="#D02829" opacity="1.000000" stroke="none" d=" M310.694397,184.886765   C312.035767,184.405670 313.092010,184.203644 314.522156,183.930099   C313.869598,187.731644 313.300781,191.045380 312.733398,194.350693   C302.564209,195.822739 302.564209,195.822739 304.490906,184.449890   C307.463715,184.409134 307.463715,184.409134 308.577728,192.024246   C309.188263,189.738098 309.798798,187.451950 310.694397,184.886765  z"/>
<path fill="#D1292A" opacity="1.000000" stroke="none" d=" M220.874359,184.942474   C222.573120,184.636475 224.427307,183.805878 226.030884,184.148438   C227.623566,184.488647 228.964157,186.009003 230.415298,187.011810   C229.213608,188.006287 228.090210,189.126266 226.778625,189.944550   C226.077835,190.381790 225.052368,190.298615 224.198120,191.400177   C225.880722,191.400177 227.563324,191.400177 229.245926,191.400177   C229.401276,191.796722 229.556625,192.193268 229.711960,192.589828   C227.114120,193.357483 224.529938,194.498138 221.907486,194.594284   C221.348358,194.614792 220.649979,190.837708 220.045883,188.382904   C220.076019,187.955643 220.006866,188.025375 220.330811,187.860291   C220.772995,186.764984 220.891235,185.834763 221.009476,184.904556   C221.009476,184.904556 220.919952,184.931931 220.874359,184.942474  z"/>
<path fill="#D1292A" opacity="1.000000" stroke="none" d=" M238.986206,191.647949   C238.186417,189.847580 237.157349,188.267639 236.128265,186.687683   C237.909607,185.793945 239.631500,184.713303 241.507324,184.116608   C242.095993,183.929367 243.098648,185.043564 243.911804,185.562073   C242.931503,185.870255 241.964050,186.236252 240.964600,186.458191   C240.563980,186.547195 240.093002,186.319275 240.117477,186.323944   C241.010223,188.131805 242.392365,189.994293 242.692551,192.017349   C242.806442,192.784866 240.547256,194.418045 239.153427,194.750824   C237.768280,195.081528 236.092422,194.337997 234.595596,193.892456   C234.386749,193.830292 234.472198,192.779404 234.421417,192.186203   C235.866577,192.080261 237.311737,191.974304 238.986206,191.647949  z"/>
<path fill="#D02829" opacity="1.000000" stroke="none" d=" M328.243530,185.641327   C324.800201,186.682678 323.461548,189.276398 322.908325,192.671967   C322.769501,193.523911 321.427429,194.179794 320.638336,194.925781   C320.130219,193.924606 319.087799,192.859558 319.198608,191.932388   C320.078552,184.571411 321.351044,183.312057 327.135590,183.689407   C327.456879,183.710373 327.719391,184.631866 328.069550,185.445801   C328.129822,185.757385 328.209198,185.683350 328.243530,185.641327  z"/>








<path fill="#D1292A" opacity="1.000000" stroke="none" d=" M380.486938,21.951933   C380.057037,17.280748 380.036713,12.638906 380.046875,7.537138   C383.057861,7.056150 386.175751,6.504328 388.963867,7.226247   C390.476227,7.617839 392.662659,11.360463 392.447479,11.585439   C388.590363,15.618506 392.549042,18.204510 393.939026,21.572718   C388.691589,23.531561 387.976715,18.177349 385.182983,16.022049   C382.488464,17.255390 386.189423,22.865772 380.486938,21.951933  z"/>
</svg>