<svg xmlns="http://www.w3.org/2000/svg" xmlns:xlink="http://www.w3.org/1999/xlink" version="1.1" id="Layer_1" x="0px" y="0px" width="100%" viewBox="0 0 305 77" enable-background="new 0 0 305 77" xml:space="preserve">


<path fill="#00AFEF" opacity="1.000000" stroke="none" d=" M1.000000,65.449982   C2.069890,64.427185 3.242952,63.985905 4.183484,63.248177   C5.351947,62.331665 6.297244,61.136749 7.392498,60.119770   C13.379307,54.560822 17.753525,48.427505 16.085014,39.528736   C15.542896,36.637424 16.217232,33.539391 15.952260,30.570078   C15.477903,25.254374 18.691183,23.039125 23.442514,21.048203   C23.667036,22.702711 23.971706,23.928333 23.977654,25.155403   C24.019564,33.801525 23.845150,42.452141 24.079191,51.092125   C24.168161,54.376545 23.163300,56.671406 20.763565,58.819824   C15.331562,63.682968 10.087022,68.755501 4.187314,73.967201   C2.738922,74.127678 1.869461,74.063843 1.000000,74.000000   C1.000000,71.299988 1.000000,68.599968 1.000000,65.449982  z"/>
<path fill="#ED3237" opacity="1.000000" stroke="none" d=" M54.666668,1.000000   C55.000015,16.570620 54.768581,32.146481 55.120987,47.709122   C55.250736,53.439087 52.338310,55.962952 47.356361,58.197445   C47.217617,56.434662 47.017380,55.053284 47.014492,53.671494   C46.989502,41.714123 47.489185,29.728960 46.813824,17.809799   C46.417881,10.821987 48.610584,5.753753 53.334396,1.233811   C53.444447,1.000000 53.888889,1.000000 54.666668,1.000000  z"/>
<path fill="#00AFEF" opacity="1.000000" stroke="none" d=" M1.000000,25.468658   C3.360076,23.590721 5.720152,22.181442 8.988286,20.229933   C8.988286,31.235023 9.545034,41.338570 8.651667,51.312222   C8.380907,54.335007 4.099553,56.998558 1.327593,59.913322   C1.000000,48.645771 1.000000,37.291542 1.000000,25.468658  z"/>
<path fill="#848688" opacity="1.000000" stroke="none" d=" M294.000549,48.166626   C295.102295,48.710793 296.160675,49.388309 297.317108,49.764179   C298.654663,50.198910 300.078491,50.368080 301.464874,50.652546   C301.600128,50.103107 301.735382,49.553669 301.870636,49.004230   C300.111603,48.338890 298.394714,47.509800 296.584381,47.043816   C293.271484,46.191086 292.742767,43.838829 293.022217,40.987732   C293.325012,37.898396 295.293945,36.706928 298.139221,37.043270   C300.532837,37.326221 302.883545,37.971798 305.626648,38.228424   C306.000000,43.022091 306.000000,48.044186 306.000000,53.533138   C302.002991,53.803532 298.005981,53.607059 293.903473,52.644196   C293.865479,50.640743 293.933014,49.403687 294.000549,48.166626  z"/>
<path fill="#848688" opacity="1.000000" stroke="none" d=" M62.333332,78.000000   C62.000000,52.645771 62.000000,27.291544 62.000000,1.468657   C62.444447,1.000000 62.888889,1.000000 63.666668,1.000000   C64.000000,26.354227 64.000000,51.708454 64.000000,77.531342   C63.555553,78.000000 63.111111,78.000000 62.333332,78.000000  z"/>
<path fill="#00AFEE" opacity="1.000000" stroke="none" d=" M1.000000,74.500000   C1.869461,74.063843 2.738922,74.127678 3.865764,74.113510   C3.522854,75.199875 2.922562,76.364258 2.661135,77.764320   C-0.085014,78.612228 1.263320,76.268898 1.000000,74.500000  z"/>
<path fill="#ED3237" opacity="1.000000" stroke="none" d=" M105.987167,52.690369   C104.724495,53.974781 103.470856,54.796162 101.357277,56.180962   C101.357277,49.107807 101.357277,43.384560 101.357277,37.157749   C105.781990,37.643372 110.758110,34.855679 113.988480,39.576637   C115.911545,38.519958 117.925423,37.413376 119.523331,36.535362   C121.665207,39.946049 123.189644,42.373531 124.359085,44.235729   C127.572746,41.615894 130.109924,38.128284 133.311005,37.341385   C136.445389,36.570881 140.256027,38.551399 143.935196,39.360813   C143.939407,39.338417 144.137909,38.283421 144.328995,37.267788   C158.383606,36.369598 157.095795,36.874897 157.002350,48.604881   C156.986710,50.567253 157.000137,52.529858 157.000137,54.734375   C155.192062,54.734375 153.812805,54.734375 151.999847,54.734375   C151.999847,52.370094 151.999863,50.242138 151.999863,48.114185   C151.999863,46.161652 151.999847,44.209118 151.999847,42.256584   C151.377869,42.157303 150.755875,42.058018 150.133896,41.958733   C147.405136,45.639900 150.157211,50.591419 148.507416,54.765781   C147.327225,54.765781 146.056488,54.765781 144.343262,54.765781   C144.149673,53.793888 143.925812,52.669994 143.678741,51.429653   C136.989151,56.472504 133.474289,56.436852 127.498863,51.188896   C122.645920,57.292725 115.877014,54.301758 109.059662,55.145988   C109.059662,50.579082 109.059662,46.373917 109.059662,42.168755   C104.245354,44.746880 106.848907,48.898033 105.987167,52.690369  M132.953857,43.574257   C133.300507,45.203773 133.463074,46.917969 134.142349,48.394451   C134.285645,48.705929 136.769089,48.548759 137.369690,47.882374   C138.063614,47.112442 138.398895,44.768856 137.955948,44.463543   C136.718979,43.610950 134.999725,43.458065 132.953857,43.574257  z"/>
<path fill="#848688" opacity="1.000000" stroke="none" d=" M246.621887,41.593819   C244.269272,40.769745 240.789734,41.713497 242.526657,37.009483   C250.313385,37.009483 258.114258,36.844559 265.903534,37.074097   C270.265228,37.202629 271.985107,41.117363 270.353790,45.263046   C269.700287,46.923824 270.314362,49.083408 270.351471,51.015953   C270.927124,50.983330 271.502777,50.950703 272.078430,50.918079   C272.078430,46.476379 272.078430,42.034683 272.078430,37.312370   C273.757965,37.312370 275.133301,37.312370 276.758392,37.312370   C276.758392,43.070732 276.758392,48.669296 276.758392,54.245426   C269.624512,57.461853 265.373962,53.507526 261.275970,48.253899   C261.108582,50.317299 260.941223,52.380699 260.752838,54.703003   C259.243378,54.703003 257.855804,54.703003 256.080444,54.703003   C256.080444,50.261768 256.080444,45.983929 256.080444,41.343002   C254.345078,41.226143 252.967438,41.133369 251.174713,41.012646   C251.174713,45.621235 251.174713,49.894894 251.174713,54.235409   C248.261353,55.579594 246.913345,55.147720 246.978714,51.950020   C247.046646,48.625797 246.916962,45.297535 246.621887,41.593819  z"/>
<path fill="#ED3237" opacity="1.000000" stroke="none" d=" M73.139748,41.985065   C71.949402,40.661530 71.202492,39.348576 69.891197,37.043503   C77.088081,37.392536 83.449745,34.997612 87.311844,42.191273   C87.762451,43.030586 90.278816,42.893799 91.848969,42.968552   C94.324928,43.086430 96.810616,42.999908 99.669907,42.999908   C99.783257,44.625420 99.879509,46.005695 100.003685,47.786358   C97.790741,47.916920 95.878983,48.029709 93.967216,48.142502   C93.961128,48.338627 93.955048,48.534756 93.948959,48.730881   C95.789459,48.891888 97.629967,49.052895 99.727051,49.236351   C99.727051,51.067356 99.727051,52.798977 99.727051,54.767262   C95.926514,54.767262 92.312477,54.767262 88.241188,54.767262   C88.123695,53.232319 88.003197,51.658058 87.833954,49.447060   C83.601242,55.699867 77.646820,55.321606 71.305237,54.787884   C71.305237,51.259651 71.305237,47.861530 71.305237,44.269684   C72.850319,44.269684 74.249031,44.269684 75.763206,44.269684   C75.939957,46.256130 76.095108,47.999889 76.383812,51.244652   C78.758194,48.784676 81.838799,46.873905 81.592430,45.613365   C80.781914,41.466267 76.871468,41.961166 73.139748,41.985065  z"/>
<path fill="#00AFEF" opacity="1.000000" stroke="none" d=" M157.393768,30.541485   C157.103378,27.716944 157.103378,25.231510 157.103378,22.746075   C156.854263,22.699190 156.605148,22.652306 156.356033,22.605423   C155.900162,24.236122 155.696808,26.002554 154.914597,27.457850   C154.189056,28.807676 152.845200,29.825153 151.773590,30.988974   C150.847763,29.897867 149.746994,28.907297 149.045715,27.687130   C148.356964,26.488766 148.074036,25.057146 147.619980,23.747967   C145.317642,25.684233 149.990067,31.355721 143.248886,30.908854   C143.248886,24.663193 143.248886,18.577421 143.248886,12.504740   C149.228806,11.633205 149.800568,12.209193 151.460251,21.164747   C154.400330,17.795258 152.303268,9.205847 160.993073,12.620271   C160.993073,17.842165 161.121490,23.305649 160.846008,28.748688   C160.807449,29.510715 158.787125,30.172438 157.393768,30.541485  z"/>
<path fill="#00AFEF" opacity="1.000000" stroke="none" d=" M186.295685,12.132881   C188.549789,14.893033 190.401901,17.551830 192.318893,20.303787   C194.859329,18.289415 190.185684,12.251702 196.792511,11.811492   C196.792511,18.515678 196.792511,24.617939 196.792511,30.671215   C190.278778,32.729961 190.921661,25.311071 187.046860,23.743126   C187.046860,25.942366 187.046860,28.079279 187.046860,30.604527   C185.401276,30.604527 183.906219,30.604527 182.192581,30.604527   C182.192581,24.577465 182.192581,18.625273 182.192581,12.216177   C183.419373,12.154971 184.656540,12.093248 186.295685,12.132881  z"/>
<path fill="#848688" opacity="1.000000" stroke="none" d=" M194.986908,52.585400   C193.156006,56.456684 190.877609,55.536701 188.971252,53.356453   C187.294144,51.438366 186.093002,49.104111 184.677109,46.946728   C182.157791,48.929020 186.962372,54.871410 180.209808,54.904739   C180.209808,48.881298 180.209808,43.277000 180.209808,37.472279   C186.637787,35.304192 186.242355,42.221363 189.810257,44.861420   C189.934067,42.110348 190.033279,39.906162 190.149475,37.324429   C191.598434,37.217449 192.996185,37.114254 194.994568,36.966709   C194.994568,42.248901 194.994568,47.189491 194.986908,52.585400  z"/>
<path fill="#00AFEF" opacity="1.000000" stroke="none" d=" M173.999680,18.011179   C173.999680,15.903886 173.999680,14.261410 173.999680,12.252627   C175.653381,12.164012 177.042816,12.089556 178.607391,12.005715   C178.763580,12.864514 178.968155,13.489731 178.975983,14.117402   C179.013367,17.112810 178.787430,20.127886 179.056458,23.099636   C179.354828,26.395554 178.618851,29.782652 175.602463,30.517118   C172.485046,31.276186 168.256042,31.121260 165.734680,29.484583   C163.828033,28.246943 163.535828,24.096157 163.091141,21.156237   C162.674576,18.402254 163.001968,15.535745 163.001968,12.241805   C164.903931,12.146931 166.633682,12.060646 169.000229,11.942595   C169.000229,15.622769 168.776505,19.082607 169.105515,22.489059   C169.245712,23.940565 170.541260,25.280478 171.311783,26.671103   C172.207657,25.270887 173.365906,23.965096 173.914719,22.439993   C174.338959,21.261133 173.999588,19.807484 173.999680,18.011179  z"/>
<path fill="#00AFEF" opacity="1.000000" stroke="none" d=" M129.055756,27.863365   C127.429291,29.447365 125.906044,30.621553 124.382805,31.795740   C123.763954,31.328072 123.145103,30.860403 122.526253,30.392735   C124.797348,24.360701 127.068443,18.328667 129.319275,12.350474   C133.254898,11.184200 135.211868,12.227903 136.383469,16.469822   C137.694977,21.218290 140.308395,25.607180 142.591843,30.677864   C140.135345,30.677864 138.405518,30.677864 136.397888,30.677864   C135.836792,25.949511 132.572647,26.534151 129.055756,27.863365  z"/>
<path fill="#848688" opacity="1.000000" stroke="none" d=" M73.997772,21.011292   C74.936028,18.688751 75.642258,16.671129 76.670845,14.833998   C78.143463,12.203797 82.679230,12.116012 83.842499,14.746116   C86.069374,19.781021 88.032822,24.932436 90.286171,30.480101   C87.342964,30.929375 84.901917,32.397629 83.319565,28.376623   C83.036888,27.658289 78.991287,27.984282 76.881378,28.557590   C75.148926,29.028337 73.710869,30.582481 72.142319,31.656416   C71.633904,31.187403 71.125496,30.718390 70.617081,30.249376   C71.714622,27.298525 72.812172,24.347673 73.997772,21.011292  z"/>
<path fill="#848688" opacity="1.000000" stroke="none" d=" M234.650497,48.018299   C232.248108,46.778381 229.344223,46.033215 228.405045,44.252071   C227.139160,41.851383 227.351807,38.042530 230.813019,37.342827   C234.076340,36.683128 238.321548,35.348747 240.569565,39.513756   C241.035690,40.377357 239.631180,42.250614 239.244553,43.254246   C240.061935,45.641014 242.110931,48.560600 241.657120,51.017986   C240.979019,54.689964 237.326599,55.319965 233.717285,55.040943   C229.665771,54.727737 227.440552,52.810684 226.879562,47.310688   C229.537048,48.462860 231.403900,49.404850 233.365967,50.062801   C234.248703,50.358810 235.321640,50.087635 236.308273,50.073814   C235.880219,49.399738 235.452179,48.725662 234.650497,48.018299  z"/>
<path fill="#848688" opacity="1.000000" stroke="none" d=" M293.599182,48.123409   C293.933014,49.403687 293.865479,50.640743 293.706299,52.343441   C293.392303,52.570324 293.170013,52.331570 292.947693,52.092812   C289.061218,58.003098 283.355103,53.531975 278.310638,55.286373   C278.310638,49.025303 278.310638,43.438465 278.310638,37.423317   C282.533783,37.423317 286.912445,37.423317 291.315918,37.423317   C291.823883,40.880417 291.810822,40.737396 288.307831,41.057575   C286.449982,41.227379 283.586121,39.681602 282.822876,43.636635   C285.726013,43.888401 288.279053,44.109806 290.832092,44.331211   C290.949097,44.836765 291.066101,45.342319 291.183105,45.847874   C288.401337,46.585667 285.619598,47.323463 282.837830,48.061256   C282.953705,48.507999 283.069580,48.954742 283.185455,49.401485   C286.630920,50.183296 290.082520,51.034832 293.599182,48.123409  z"/>
<path fill="#00AFEF" opacity="1.000000" stroke="none" d=" M214.971695,23.166502   C215.801041,25.788536 216.599548,28.012770 217.398071,30.237003   C216.928268,30.720430 216.458481,31.203859 215.988678,31.687288   C214.590607,30.635042 212.955017,29.784763 211.848999,28.484167   C210.102295,26.430204 206.080978,26.414284 204.049927,28.547873   C202.923370,29.731293 201.443512,30.578365 200.122894,31.577047   C199.586929,31.176201 199.050964,30.775354 198.515015,30.374508   C200.799255,24.335815 203.083496,18.297123 205.334015,12.347595   C209.159180,11.018862 210.901474,12.841737 212.011292,16.118870   C212.785202,18.404097 213.950424,20.556801 214.971695,23.166502  z"/>
<path fill="#848688" opacity="1.000000" stroke="none" d=" M196.485291,37.525642   C198.453430,37.122925 200.101654,37.013237 201.750229,37.008232   C208.173599,36.988724 211.026169,39.810215 210.999557,46.108379   C210.974152,52.118740 208.076920,54.946560 201.878052,54.997742   C200.100586,55.012417 198.322876,54.999989 196.165527,54.999989   C196.165527,48.997208 196.165527,43.431984 196.485291,37.525642  M205.908554,42.906658   C204.236618,42.115528 202.564682,41.324398 200.251373,40.229778   C200.251373,44.109104 200.251373,46.814426 200.251373,49.565250   C206.098312,51.267250 206.274109,47.744362 205.908554,42.906658  z"/>
<path fill="#848688" opacity="1.000000" stroke="none" d=" M222.002686,40.196125   C222.779221,38.661575 223.553711,37.580868 224.328201,36.500160   C224.879440,36.749275 225.430664,36.998386 225.981888,37.247498   C225.981888,41.859615 226.350845,46.510288 225.874054,51.072578   C225.431915,55.303326 221.693756,54.795448 218.582199,55.033890   C214.246552,55.366123 212.500015,52.691952 212.112717,49.166710   C211.698990,45.400715 212.019501,41.554054 212.019501,37.555351   C214.864792,36.467609 215.937393,37.112129 216.068832,40.151489   C216.225296,43.769802 216.920685,47.364811 217.470474,51.655888   C223.278671,48.653347 221.672791,44.321281 222.002686,40.196125  z"/>
<path fill="#00AFEF" opacity="1.000000" stroke="none" d=" M119.015640,24.590702   C119.003922,26.817513 119.003922,28.621098 119.003922,30.754848   C117.340591,30.831450 115.943588,30.895786 115.756943,30.904381   C113.189041,24.271139 110.862129,18.260405 108.543549,12.271193   C112.817833,10.613588 114.695038,13.950392 116.564186,17.601009   C119.270164,14.581947 120.527939,9.954178 126.152611,12.768167   C123.820557,16.499104 121.423958,20.333292 119.015640,24.590702  z"/>
<path fill="#ED3237" opacity="1.000000" stroke="none" d=" M159.456528,37.414513   C161.922668,36.858440 163.852890,36.485382 164.440659,39.690872   C164.729233,41.264679 166.220856,42.860680 167.570084,43.947529   C170.531876,46.333370 170.946121,49.760395 169.487595,52.320503   C168.546783,53.971870 165.068344,54.293953 162.654587,54.941063   C161.429993,55.269371 160.044754,54.998474 158.235641,54.998474   C158.151505,53.087891 158.075806,51.369087 157.981445,49.226322   C159.948517,49.083424 161.656921,48.959320 162.971207,48.863842   C161.683884,45.101170 160.417023,41.398243 159.456528,37.414513  z"/>
<path fill="#848688" opacity="1.000000" stroke="none" d=" M90.999847,24.900620   C90.999847,20.791685 90.999847,17.163095 90.999847,13.284879   C92.805878,13.284879 94.180740,13.284879 95.946304,13.284879   C95.946304,17.789234 95.946304,22.056725 95.946304,26.451359   C99.141113,26.929808 101.986946,27.301558 104.785599,27.895618   C104.975471,27.935923 104.810387,29.648438 104.810387,30.790092   C100.204765,30.790092 95.938248,30.790092 90.999855,30.790092   C90.999855,28.903690 90.999855,27.142330 90.999847,24.900620  z"/>
<path fill="#848688" opacity="1.000000" stroke="none" d=" M178.999451,47.920334   C178.999451,50.369511 178.999451,52.337772 178.999451,54.677147   C177.328125,54.780155 175.954437,54.864815 174.279785,54.968025   C174.279785,48.914177 174.279785,43.198078 174.279785,37.251282   C175.745270,37.251282 177.015930,37.251282 178.999451,37.251282   C178.999451,40.606289 178.999451,44.022854 178.999451,47.920334  z"/>
<path fill="#ED3237" opacity="1.000000" stroke="none" d=" M88.107201,38.129700   C91.906509,37.374023 95.632042,37.069656 99.688599,36.738243   C99.688599,38.728745 99.688599,40.105602 99.688599,41.909138   C96.146553,41.909138 92.681068,42.040226 89.248940,41.761101   C88.760796,41.721401 88.434586,39.690380 88.107201,38.129700  z"/>
<path fill="#ED3237" opacity="1.000000" stroke="none" d=" M32.957222,24.885319   C34.094143,23.659206 35.231064,22.433094 36.721397,21.595510   C37.383469,29.594275 37.578941,37.211864 38.072727,44.810066   C38.213005,46.968582 39.222069,49.070637 39.832710,51.198582   C38.116650,53.066280 36.400585,54.933975 34.230919,56.654495   C33.518211,55.671543 33.259106,54.835770 33.216343,53.647911   C33.274197,43.825657 33.115711,34.355488 32.957222,24.885319  z"/>
<path fill="#ED3137" opacity="1.000000" stroke="none" d=" M32.596664,25.080917   C33.115711,34.355488 33.274197,43.825657 32.910858,53.647827   C31.981720,53.999649 31.574408,53.999462 31.167097,53.999279   C31.112116,45.599537 31.008303,37.199505 31.058027,28.800385   C31.064995,27.623478 31.824793,26.451029 32.596664,25.080917  z"/>
<path fill="#ED3237" opacity="1.000000" stroke="none" d=" M39.901787,50.785149   C39.222069,49.070637 38.213005,46.968582 38.072727,44.810066   C37.578941,37.211864 37.383469,29.594275 37.037170,21.575436   C40.489155,20.908518 39.978859,23.456911 39.985149,25.528769   C40.010292,33.809662 39.980392,42.090721 39.901787,50.785149  z"/>
<path fill="#EC3137" opacity="1.000000" stroke="none" d=" M31.099640,54.353096   C31.574408,53.999462 31.981720,53.999649 32.694515,53.999916   C33.259106,54.835770 33.518211,55.671543 33.912052,56.808136   C31.274511,58.526405 31.089891,56.696301 31.099640,54.353096  z"/>


</svg>