<?xml version="1.0" encoding="utf-8"?>
<!-- Generator: Adobe Illustrator 24.3.0, SVG Export Plug-In . SVG Version: 6.00 Build 0)  -->
<svg version="1.1" id="Layer_1" xmlns="http://www.w3.org/2000/svg" xmlns:xlink="http://www.w3.org/1999/xlink" x="0px" y="0px"
	 viewBox="0 0 297.89 58.85" style="enable-background:new 0 0 297.89 58.85;" xml:space="preserve">
<style type="text/css">
	.st0{fill:#D91F32;}
	.st1{fill:#FFFFFF;}
	.st2{enable-background:new    ;}
</style>
<circle class="st0" cx="28.97" cy="29.53" r="28.12"/>
<path class="st1" d="M45,45.52c-8.52,2.74-16.61-2.49-17.28-11.01c-0.28-3.58-0.05-7.2-0.05-10.93c3.01,0,5.98,0,9.23,0
	c0,0.49,0,1.01,0,1.53c0.01,2.89-0.07,5.78,0.05,8.66C37.17,39.19,39.74,43.12,45,45.52z"/>
<path class="st1" d="M32.39,45.58c-8.24,2.64-16.25-2.41-17-10.76c-0.33-3.68-0.06-7.41-0.06-11.24c2.9,0,5.87,0,9.1,0
	c0,0.6-0.01,1.24,0,1.87c0.03,3.05-0.16,6.13,0.16,9.15C25.14,39.86,26.77,41.96,32.39,45.58z"/>
<path class="st1" d="M31.93,11.38c3.22-0.02,5.71,2.36,5.69,5.46c-0.02,3.01-2.48,5.38-5.6,5.4c-3.11,0.02-5.57-2.35-5.61-5.39
	C26.37,13.85,28.84,11.41,31.93,11.38z"/>
<path class="st1" d="M19.89,22.44c-2.36-0.01-4.22-1.89-4.19-4.22c0.03-2.31,1.97-4.15,4.32-4.1c2.27,0.05,4.09,1.89,4.1,4.14
	C24.14,20.59,22.25,22.46,19.89,22.44z"/>
<g class="st2">
	<path class="st1" d="M70.8,9.67V32.3h-5.48V9.67H70.8z"/>
	<path class="st1" d="M90.79,16.29c1.21,1.37,1.81,3.25,1.81,5.64V32.3h-5.48v-9.73c0-1.2-0.31-2.13-0.94-2.8
		c-0.63-0.67-1.47-1.01-2.51-1.01c-1.11,0-1.99,0.35-2.64,1.06c-0.65,0.7-0.98,1.71-0.98,3.01v9.48h-5.48V14.44h5.48v3.27
		c0.51-1.07,1.28-1.91,2.29-2.53s2.2-0.93,3.57-0.93C87.96,14.24,89.58,14.93,90.79,16.29z"/>
	<path class="st1" d="M106.53,15.14c0.98,0.62,1.7,1.46,2.14,2.53V8.61h5.48V32.3h-5.48v-3.23c-0.45,1.07-1.16,1.91-2.14,2.53
		c-0.98,0.62-2.16,0.93-3.52,0.93c-1.47,0-2.79-0.37-3.95-1.11c-1.16-0.74-2.08-1.8-2.75-3.19c-0.67-1.39-1.01-3.01-1.01-4.87
		c0-1.88,0.34-3.51,1.01-4.88c0.67-1.38,1.59-2.43,2.75-3.17c1.16-0.74,2.48-1.1,3.95-1.1C104.37,14.21,105.55,14.52,106.53,15.14z
		 M101.93,20.17c-0.71,0.77-1.07,1.84-1.07,3.2s0.36,2.43,1.07,3.2c0.72,0.77,1.66,1.15,2.83,1.15c1.15,0,2.1-0.39,2.83-1.18
		c0.74-0.79,1.1-1.85,1.1-3.17c0-1.34-0.37-2.41-1.1-3.19s-1.68-1.17-2.83-1.17C103.59,19.02,102.65,19.4,101.93,20.17z"/>
	<path class="st1" d="M118.31,7.34c0.6-0.54,1.39-0.82,2.37-0.82c0.98,0,1.77,0.27,2.37,0.82c0.6,0.54,0.9,1.23,0.9,2.07
		c0,0.81-0.3,1.49-0.9,2.03c-0.6,0.54-1.39,0.82-2.37,0.82c-0.98,0-1.77-0.27-2.37-0.82c-0.6-0.54-0.9-1.22-0.9-2.03
		C117.42,8.58,117.71,7.89,118.31,7.34z M123.4,14.44V32.3h-5.48V14.44H123.4z"/>
	<path class="st1" d="M137.49,15.14c0.98,0.62,1.71,1.46,2.18,2.53v-3.23h5.44V32.3h-5.44v-3.23c-0.47,1.07-1.2,1.91-2.18,2.53
		c-0.98,0.62-2.16,0.93-3.52,0.93c-1.47,0-2.79-0.37-3.95-1.11c-1.16-0.74-2.08-1.8-2.75-3.19c-0.67-1.39-1.01-3.01-1.01-4.87
		c0-1.88,0.34-3.51,1.01-4.88c0.67-1.38,1.59-2.43,2.75-3.17c1.16-0.74,2.48-1.1,3.95-1.1C135.34,14.21,136.51,14.52,137.49,15.14z
		 M132.9,20.17c-0.71,0.77-1.07,1.84-1.07,3.2s0.36,2.43,1.07,3.2c0.72,0.77,1.66,1.15,2.83,1.15c1.15,0,2.1-0.39,2.83-1.18
		c0.74-0.79,1.1-1.85,1.1-3.17c0-1.34-0.37-2.41-1.1-3.19s-1.68-1.17-2.83-1.17C134.56,19.02,133.61,19.4,132.9,20.17z"/>
	<path class="st1" d="M154.37,9.67V32.3h-5.48V9.67H154.37z"/>
	<path class="st1" d="M174.36,16.29c1.21,1.37,1.81,3.25,1.81,5.64V32.3h-5.48v-9.73c0-1.2-0.31-2.13-0.94-2.8
		c-0.63-0.67-1.47-1.01-2.51-1.01c-1.11,0-1.99,0.35-2.64,1.06c-0.65,0.7-0.98,1.71-0.98,3.01v9.48h-5.48V14.44h5.48v3.27
		c0.51-1.07,1.28-1.91,2.29-2.53s2.2-0.93,3.57-0.93C171.53,14.24,173.16,14.93,174.36,16.29z"/>
	<path class="st1" d="M189.91,27.6v4.71h-2.46c-2.09,0-3.72-0.52-4.88-1.55c-1.16-1.04-1.75-2.75-1.75-5.14v-6.56h-2.4v-4.61h2.4
		v-4.39h5.48v4.39h3.59v4.61h-3.59v6.66c0,0.7,0.14,1.2,0.43,1.47s0.77,0.42,1.46,0.42H189.91z"/>
	<path class="st1" d="M209.79,24.36H197.4c0.06,1.35,0.41,2.31,1.02,2.9s1.41,0.88,2.37,0.88c0.81,0,1.48-0.2,2.02-0.61
		s0.89-0.93,1.06-1.57h5.8c-0.24,1.26-0.75,2.39-1.54,3.38c-0.79,0.99-1.79,1.77-3.01,2.34s-2.57,0.85-4.07,0.85
		c-1.75,0-3.3-0.37-4.66-1.11s-2.42-1.8-3.19-3.19s-1.15-3.01-1.15-4.87c0-1.88,0.38-3.51,1.14-4.88s1.82-2.43,3.19-3.17
		c1.37-0.74,2.92-1.1,4.67-1.1c1.77,0,3.33,0.36,4.67,1.09c1.34,0.73,2.39,1.75,3.12,3.06c0.74,1.31,1.1,2.82,1.1,4.53
		C209.95,23.34,209.9,23.83,209.79,24.36z M203.47,19.42c-0.65-0.59-1.46-0.88-2.42-0.88c-1,0-1.84,0.3-2.5,0.9
		c-0.66,0.6-1.04,1.47-1.12,2.63h6.98C204.43,20.88,204.12,20,203.47,19.42z"/>
	<path class="st1" d="M220.92,15.21c1.08-0.64,2.25-0.96,3.51-0.96v5.86h-1.57c-1.45,0-2.58,0.31-3.38,0.93
		c-0.8,0.62-1.2,1.67-1.2,3.14v8.13h-5.48V14.44h5.48v3.36C218.96,16.71,219.84,15.85,220.92,15.21z"/>
	<path class="st1" d="M242.95,16.29c1.21,1.37,1.81,3.25,1.81,5.64V32.3h-5.48v-9.73c0-1.2-0.32-2.13-0.94-2.8
		c-0.63-0.67-1.47-1.01-2.51-1.01c-1.11,0-1.99,0.35-2.64,1.06c-0.65,0.7-0.98,1.71-0.98,3.01v9.48h-5.48V14.44h5.48v3.27
		c0.51-1.07,1.27-1.91,2.29-2.53c1.01-0.62,2.2-0.93,3.57-0.93C240.11,14.24,241.74,14.93,242.95,16.29z"/>
	<path class="st1" d="M265.19,24.36h-12.39c0.06,1.35,0.41,2.31,1.02,2.9s1.41,0.88,2.37,0.88c0.81,0,1.48-0.2,2.02-0.61
		c0.53-0.41,0.89-0.93,1.06-1.57h5.8c-0.24,1.26-0.75,2.39-1.54,3.38c-0.79,0.99-1.79,1.77-3.01,2.34s-2.57,0.85-4.07,0.85
		c-1.75,0-3.3-0.37-4.66-1.11c-1.36-0.74-2.42-1.8-3.19-3.19s-1.15-3.01-1.15-4.87c0-1.88,0.38-3.51,1.14-4.88s1.82-2.43,3.19-3.17
		s2.92-1.1,4.67-1.1c1.77,0,3.33,0.36,4.68,1.09c1.34,0.73,2.38,1.75,3.12,3.06c0.74,1.31,1.11,2.82,1.11,4.53
		C265.35,23.34,265.29,23.83,265.19,24.36z M258.86,19.42c-0.65-0.59-1.46-0.88-2.42-0.88c-1,0-1.84,0.3-2.5,0.9
		c-0.66,0.6-1.04,1.47-1.12,2.63h6.98C259.83,20.88,259.51,20,258.86,19.42z"/>
	<path class="st1" d="M278.31,27.6v4.71h-2.46c-2.09,0-3.72-0.52-4.88-1.55c-1.16-1.04-1.75-2.75-1.75-5.14v-6.56h-2.4v-4.61h2.4
		v-4.39h5.48v4.39h3.59v4.61h-3.59v6.66c0,0.7,0.14,1.2,0.43,1.47s0.77,0.42,1.46,0.42H278.31z"/>
	<path class="st1" d="M293.31,15.91c1.36,1.13,2.2,2.63,2.55,4.48h-5.12c-0.15-0.73-0.49-1.3-1.01-1.71
		c-0.52-0.42-1.18-0.63-1.97-0.63c-0.62,0-1.09,0.13-1.41,0.4c-0.32,0.27-0.48,0.65-0.48,1.14c0,0.56,0.29,0.97,0.88,1.25
		c0.59,0.28,1.51,0.55,2.77,0.83c1.37,0.32,2.49,0.65,3.36,0.98c0.88,0.33,1.63,0.87,2.27,1.62c0.64,0.75,0.96,1.75,0.96,3.01
		c0,1.02-0.28,1.93-0.83,2.72c-0.56,0.79-1.36,1.41-2.4,1.86s-2.28,0.67-3.71,0.67c-2.41,0-4.34-0.53-5.79-1.6
		c-1.45-1.07-2.34-2.59-2.66-4.58H286c0.08,0.77,0.41,1.36,0.98,1.76s1.3,0.61,2.19,0.61c0.62,0,1.09-0.14,1.41-0.43
		s0.48-0.67,0.48-1.14c0-0.62-0.29-1.06-0.88-1.33c-0.59-0.27-1.54-0.55-2.87-0.85c-1.32-0.28-2.41-0.58-3.27-0.9
		c-0.85-0.32-1.59-0.84-2.21-1.55c-0.62-0.71-0.93-1.69-0.93-2.93c0-1.6,0.61-2.9,1.83-3.89c1.22-0.99,2.93-1.49,5.16-1.49
		C290.15,14.21,291.96,14.78,293.31,15.91z"/>
</g>
<g class="st2">
	<path class="st1" d="M69.19,51.28h-2.01V41.7h-3.38V40h8.76v1.7h-3.37V51.28z"/>
	<path class="st1" d="M73.8,51.28V40h1.92v4.42h0.04c0.22-0.51,0.56-0.9,1.01-1.17s0.98-0.41,1.61-0.41c0.91,0,1.62,0.28,2.13,0.83
		c0.51,0.56,0.77,1.31,0.77,2.27v5.34h-1.95v-4.94c0-0.59-0.14-1.04-0.43-1.37s-0.71-0.48-1.27-0.48c-0.58,0-1.04,0.18-1.38,0.55
		c-0.34,0.37-0.5,0.86-0.5,1.48v4.76H73.8z"/>
	<path class="st1" d="M84.62,41.6c-0.21,0.21-0.47,0.31-0.77,0.31c-0.3,0-0.56-0.1-0.77-0.31c-0.21-0.21-0.31-0.46-0.31-0.75
		c0-0.3,0.1-0.55,0.31-0.75c0.21-0.21,0.46-0.31,0.77-0.31c0.3,0,0.56,0.1,0.77,0.31s0.32,0.46,0.32,0.75
		C84.94,41.14,84.83,41.39,84.62,41.6z M82.88,51.28v-8.29h1.95v8.29H82.88z"/>
	<path class="st1" d="M86.46,51.28v-8.29h1.87v1.42h0.04c0.23-0.5,0.56-0.89,1-1.17s0.97-0.41,1.6-0.41c0.91,0,1.61,0.27,2.11,0.82
		c0.5,0.55,0.75,1.3,0.75,2.27v5.35h-1.95v-4.96c0-0.59-0.14-1.05-0.42-1.36c-0.28-0.31-0.69-0.47-1.24-0.47
		c-0.56,0-1,0.18-1.33,0.55c-0.33,0.37-0.5,0.85-0.5,1.45v4.8H86.46z"/>
	<path class="st1" d="M97.42,46.45l3.12-3.46h2.24l-3.31,3.56l3.46,4.72h-2.25l-2.62-3.54L97.4,48.4v2.88h-1.95V40h1.95v6.45H97.42z
		"/>
	<path class="st1" d="M113.67,43.12l-2.31,8.16h-1.9L106.44,40h2.1l1.95,8.54h0.06l2.27-8.54h1.78l2.27,8.54h0.06l1.95-8.54h2.1
		l-3.03,11.28h-1.9l-2.31-8.16H113.67z"/>
	<path class="st1" d="M126.7,48.8h1.82c-0.13,0.79-0.52,1.42-1.2,1.91c-0.67,0.49-1.5,0.73-2.47,0.73c-1.24,0-2.21-0.38-2.92-1.15
		c-0.71-0.76-1.06-1.81-1.06-3.13c0-1.31,0.35-2.37,1.06-3.16c0.71-0.79,1.66-1.19,2.85-1.19c1.17,0,2.1,0.38,2.79,1.13
		c0.69,0.75,1.03,1.76,1.03,3.02v0.63h-5.79v0.12c0,0.67,0.19,1.2,0.57,1.61s0.88,0.61,1.52,0.61c0.45,0,0.83-0.1,1.16-0.31
		C126.38,49.43,126.59,49.15,126.7,48.8z M124.78,44.33c-0.54,0-0.99,0.19-1.36,0.56s-0.56,0.85-0.61,1.43h3.87
		c-0.02-0.59-0.21-1.07-0.55-1.44C125.78,44.51,125.33,44.33,124.78,44.33z"/>
	<path class="st1" d="M134.48,51.41c-0.6,0-1.13-0.14-1.58-0.41c-0.46-0.27-0.81-0.65-1.05-1.14h-0.04v1.42h-1.91V40h1.95v4.42h0.05
		c0.23-0.49,0.58-0.87,1.03-1.15s0.97-0.41,1.56-0.41c1.05,0,1.88,0.38,2.49,1.15c0.61,0.77,0.92,1.81,0.92,3.13
		c0,1.32-0.31,2.37-0.92,3.13C136.37,51.03,135.54,51.41,134.48,51.41z M133.88,44.46c-0.6,0-1.1,0.25-1.47,0.74
		s-0.57,1.14-0.57,1.94c0,0.81,0.19,1.46,0.57,1.95c0.38,0.49,0.87,0.73,1.47,0.73c0.63,0,1.12-0.24,1.48-0.72
		c0.36-0.48,0.54-1.13,0.54-1.96c0-0.82-0.18-1.48-0.55-1.96C134.99,44.7,134.5,44.46,133.88,44.46z"/>
	<path class="st1" d="M147.33,51.28h-2.01V41.7h-3.38V40h8.76v1.7h-3.37V51.28z"/>
	<path class="st1" d="M151.93,51.28V40h1.92v4.42h0.04c0.22-0.51,0.56-0.9,1.01-1.17s0.99-0.41,1.61-0.41
		c0.91,0,1.62,0.28,2.13,0.83c0.51,0.56,0.77,1.31,0.77,2.27v5.34h-1.95v-4.94c0-0.59-0.14-1.04-0.43-1.37
		c-0.29-0.32-0.71-0.48-1.27-0.48c-0.58,0-1.04,0.18-1.38,0.55s-0.5,0.86-0.5,1.48v4.76H151.93z"/>
	<path class="st1" d="M162.75,41.6c-0.21,0.21-0.47,0.31-0.77,0.31c-0.3,0-0.56-0.1-0.77-0.31c-0.21-0.21-0.31-0.46-0.31-0.75
		c0-0.3,0.1-0.55,0.31-0.75c0.21-0.21,0.46-0.31,0.77-0.31c0.3,0,0.56,0.1,0.77,0.31s0.32,0.46,0.32,0.75
		C163.07,41.14,162.96,41.39,162.75,41.6z M161.01,51.28v-8.29h1.95v8.29H161.01z"/>
	<path class="st1" d="M164.59,51.28v-8.29h1.87v1.42h0.04c0.23-0.5,0.56-0.89,1-1.17s0.97-0.41,1.6-0.41c0.91,0,1.61,0.27,2.11,0.82
		c0.5,0.55,0.75,1.3,0.75,2.27v5.35h-1.95v-4.96c0-0.59-0.14-1.05-0.42-1.36c-0.28-0.31-0.69-0.47-1.24-0.47
		c-0.56,0-1,0.18-1.33,0.55c-0.33,0.37-0.5,0.85-0.5,1.45v4.8H164.59z"/>
	<path class="st1" d="M175.55,46.45l3.12-3.46h2.24l-3.31,3.56l3.46,4.72h-2.25l-2.62-3.54l-0.66,0.66v2.88h-1.95V40h1.95v6.45
		H175.55z"/>
	<path class="st1" d="M187.25,40v7.12c0,0.78,0.23,1.41,0.69,1.88s1.1,0.71,1.93,0.71s1.47-0.24,1.93-0.71
		c0.46-0.47,0.7-1.1,0.7-1.88V40h2.01v7.3c0,1.25-0.42,2.25-1.25,3.02c-0.84,0.77-1.96,1.15-3.38,1.15c-1.41,0-2.54-0.38-3.38-1.15
		c-0.84-0.77-1.26-1.77-1.26-3.02V40H187.25z"/>
	<path class="st1" d="M196.15,45.37c0-0.76,0.31-1.38,0.92-1.84c0.61-0.47,1.42-0.7,2.43-0.7c0.97,0,1.76,0.24,2.37,0.71
		c0.61,0.48,0.92,1.1,0.95,1.86h-1.81c-0.03-0.36-0.18-0.64-0.45-0.84c-0.27-0.2-0.63-0.3-1.09-0.3c-0.43,0-0.77,0.09-1.03,0.28
		c-0.26,0.18-0.39,0.43-0.39,0.73c0,0.46,0.4,0.78,1.19,0.98l1.48,0.33c0.83,0.19,1.42,0.46,1.77,0.81
		c0.35,0.35,0.53,0.83,0.53,1.45c0,0.78-0.33,1.41-0.99,1.9c-0.66,0.48-1.51,0.72-2.56,0.72c-1.03,0-1.86-0.24-2.49-0.71
		s-0.98-1.1-1.04-1.9h1.92c0.06,0.38,0.23,0.67,0.52,0.88c0.29,0.2,0.68,0.3,1.17,0.3c0.47,0,0.85-0.09,1.12-0.27
		s0.41-0.42,0.41-0.73c0-0.24-0.08-0.43-0.25-0.58s-0.46-0.27-0.86-0.37l-1.51-0.35C196.92,47.36,196.15,46.58,196.15,45.37z"/>
	<path class="st1" d="M206.66,51.11c-0.22,0.22-0.49,0.32-0.81,0.32c-0.32,0-0.59-0.11-0.8-0.32s-0.33-0.48-0.33-0.79
		c0-0.31,0.11-0.57,0.33-0.78s0.49-0.32,0.8-0.32c0.32,0,0.59,0.11,0.81,0.32s0.33,0.47,0.33,0.78
		C206.99,50.63,206.88,50.9,206.66,51.11z M204.85,40h2.01l-0.16,7.56H205L204.85,40z"/>
</g>
</svg>
