<svg xmlns="http://www.w3.org/2000/svg" xmlns:xlink="http://www.w3.org/1999/xlink" version="1.1" id="Layer_1" x="0px" y="0px" width="100%" viewBox="0 0 176 69" enable-background="new 0 0 176 69" xml:space="preserve" style="&#10;">


<path fill="#E245C6" opacity="1.000000" stroke="none" d=" M40.837849,43.999489   C39.335278,50.470608 33.976048,48.589077 29.544434,49.134220   C27.341490,55.651997 31.663389,63.282333 26.703951,69.668289   C18.333334,70.000000 9.666667,70.000000 1.334223,69.452927   C3.815118,66.920609 5.961790,64.935364 8.108462,62.950119   C12.555544,62.950119 17.002625,62.950119 22.027733,62.950119   C22.027733,58.106590 22.027733,53.519897 22.445374,48.420853   C26.451584,44.666321 30.376709,42.387123 35.497734,43.300930   C37.263111,43.615948 39.056992,43.771236 40.837849,43.999489  z"/>
<path fill="#3495D8" opacity="1.000000" stroke="none" d=" M16.001305,8.833517   C10.653354,9.369925 8.743124,11.362773 7.561357,17.647305   C5.100841,19.055969 3.050421,20.027985 1.000000,21.000000   C1.000000,19.285641 1.000000,17.571283 1.344670,15.394872   C6.126226,10.288546 10.563113,5.644273 15.000000,1.000000   C16.714357,1.000000 18.428717,1.000000 20.538523,1.343853   C19.289749,4.069643 17.645527,6.451580 16.001305,8.833517  z"/>
<path fill="#229DDA" opacity="1.000000" stroke="none" d=" M14.571538,1.000000   C10.563113,5.644273 6.126226,10.288546 1.344670,14.966410   C1.000000,12.958333 1.000000,10.916667 1.285530,8.717045   C4.047373,6.039394 6.523686,3.519697 9.000000,1.000000   C10.714358,1.000000 12.428718,1.000000 14.571538,1.000000  z"/>
<path fill="#6081D3" opacity="1.000000" stroke="none" d=" M7.833399,23.999002   C7.880535,26.041403 7.927671,28.083803 7.566820,30.604259   C5.105888,32.054878 3.052944,33.027439 1.000000,34.000000   C1.000000,32.285580 1.000000,30.571157 1.342324,28.395895   C3.734232,26.623037 5.783815,25.311020 7.833399,23.999002  z"/>
<path fill="#AC5CCA" opacity="1.000000" stroke="none" d=" M58.571537,1.000000   C58.998516,1.710649 58.997036,2.421298 58.702808,3.584992   C56.923096,5.729356 55.436134,7.420673 53.949173,9.111990   C52.572735,9.065854 51.196301,9.019717 49.452816,8.562094   C50.390514,5.767073 51.695259,3.383537 53.000000,1.000001   C54.714359,1.000000 56.428715,1.000000 58.571537,1.000000  z"/>
<path fill="#488CD6" opacity="1.000000" stroke="none" d=" M16.425602,8.901426   C17.645527,6.451580 19.289749,4.069643 20.966986,1.343853   C22.388889,1.000000 23.777779,1.000000 25.579540,1.362976   C24.660561,4.094814 23.328711,6.463675 21.996861,8.832537   C20.281206,8.878137 18.565554,8.923736 16.425602,8.901426  z"/>
<path fill="#4B8AD6" opacity="1.000000" stroke="none" d=" M7.903097,23.574230   C5.783815,25.311020 3.734232,26.623037 1.342324,27.967527   C1.000000,25.958334 1.000000,23.916666 1.000000,21.437500   C3.050421,20.027985 5.100841,19.055969 7.492508,18.036909   C7.880103,19.709730 7.926449,21.429596 7.903097,23.574230  z"/>
<path fill="#9B66CD" opacity="1.000000" stroke="none" d=" M52.583336,1.000001   C51.695259,3.383537 50.390514,5.767073 49.045387,8.491324   C46.967674,8.877394 44.930347,8.922748 42.620041,8.619162   C44.231373,5.846815 46.115685,3.423407 48.000000,1.000000   C49.388889,1.000000 50.777779,1.000000 52.583336,1.000001  z"/>
<path fill="#CE4FC8" opacity="1.000000" stroke="none" d=" M8.062563,62.539124   C5.961790,64.935364 3.815118,66.920609 1.334223,68.952927   C1.000000,66.958336 1.000000,64.916664 1.342150,62.404434   C3.734899,60.623833 5.785499,59.313797 7.836100,58.003761   C7.896289,59.378555 7.956477,60.753342 8.062563,62.539124  z"/>
<path fill="#7078D1" opacity="1.000000" stroke="none" d=" M1.000000,34.428463   C3.052944,33.027439 5.105888,32.054878 7.497007,31.037064   C7.882594,32.385201 7.930005,33.778591 7.573010,35.626938   C5.112403,37.387928 3.056201,38.693962 0.999999,40.000000   C1.000000,38.285641 1.000000,36.571285 1.000000,34.428463  z"/>
<path fill="#7078D1" opacity="1.000000" stroke="none" d=" M34.999615,8.834184   C33.930630,8.881902 32.861645,8.929621 31.401386,8.551544   C32.340076,5.750501 33.670036,3.375250 35.000000,1.000000   C36.388889,1.000000 37.777779,1.000000 39.550293,1.343858   C38.289154,4.069872 36.644382,6.452028 34.999615,8.834184  z"/>

<path fill="#B659CA" opacity="1.000000" stroke="none" d=" M7.909930,57.591560   C5.785499,59.313797 3.734899,60.623833 1.342150,61.966934   C1.000000,60.611111 1.000000,59.222221 1.342202,57.383438   C3.735672,55.623268 5.786942,54.312992 7.838210,53.002716   C7.886726,54.394928 7.935244,55.787148 7.909930,57.591560  z"/>
<path fill="#8471CF" opacity="1.000000" stroke="none" d=" M0.999999,40.416664   C3.056201,38.693962 5.112403,37.387928 7.502334,36.039917   C7.883085,37.389690 7.930108,38.781429 7.573489,40.627754   C5.113232,42.388222 3.056616,43.694111 1.000000,45.000000   C1.000000,43.611111 1.000000,42.222221 0.999999,40.416664  z"/>
<path fill="#657ED3" opacity="1.000000" stroke="none" d=" M34.600006,1.000000   C33.670036,3.375250 32.340076,5.750501 31.004967,8.479983   C29.608862,8.880217 28.217905,8.926218 26.455904,8.568077   C27.723240,5.775957 29.361620,3.387978 31.000000,1.000000   C32.066669,1.000000 33.133339,1.000000 34.600006,1.000000  z"/>
<path fill="#5485D5" opacity="1.000000" stroke="none" d=" M30.583334,1.000000   C29.361620,3.387978 27.723240,5.775957 26.043404,8.497282   C24.931620,8.877473 23.861292,8.924314 22.393913,8.901847   C23.328711,6.463675 24.660561,4.094814 25.996204,1.362976   C27.388889,1.000000 28.777779,1.000000 30.583334,1.000000  z"/>
<path fill="#8471CF" opacity="1.000000" stroke="none" d=" M35.396217,8.902986   C36.644382,6.452028 38.289154,4.069872 39.966961,1.343858   C41.066669,1.000000 42.133339,1.000000 43.566452,1.343744   C42.288448,4.069488 40.644001,6.451488 38.999557,8.833488   C37.930645,8.879589 36.861736,8.925688 35.396217,8.902986  z"/>
<path fill="#876ECF" opacity="1.000000" stroke="none" d=" M39.375244,8.903715   C40.644001,6.451488 42.288448,4.069488 43.966446,1.343744   C45.066669,1.000000 46.133339,1.000000 47.600006,1.000000   C46.115685,3.423407 44.231373,5.846815 42.188286,8.550827   C41.269989,8.878935 40.510460,8.926438 39.375244,8.903715  z"/>
<path fill="#9168CD" opacity="1.000000" stroke="none" d=" M1.000000,45.399994   C3.056616,43.694111 5.113232,42.388222 7.503658,41.040436   C7.885168,42.068993 7.932869,43.139439 7.574967,44.647011   C5.112909,46.389420 3.056454,47.694710 1.000000,49.000000   C1.000000,47.933331 1.000000,46.866661 1.000000,45.399994  z"/>
<path fill="#A064CD" opacity="1.000000" stroke="none" d=" M1.000000,49.399994   C3.056454,47.694710 5.112909,46.389420 7.503228,45.043507   C7.883883,46.071732 7.930674,47.140583 7.573217,48.646873   C5.112647,50.389545 3.056323,51.694771 0.999999,53.000000   C1.000000,51.933331 1.000000,50.866661 1.000000,49.399994  z"/>
<path fill="#AC5CCA" opacity="1.000000" stroke="none" d=" M0.999999,53.399994   C3.056323,51.694771 5.112647,50.389545 7.502701,49.042946   C7.884758,50.071159 7.933084,51.140739 7.909810,52.606522   C5.786942,54.312992 3.735672,55.623268 1.342202,56.966774   C1.000000,55.933331 1.000000,54.866661 0.999999,53.399994  z"/>
<path fill="#FFFEFC" opacity="1.000000" stroke="none" d=" M131.115891,59.834801   C130.076660,59.119778 128.182602,58.454288 128.137833,57.681629   C127.860298,52.892864 127.998222,48.080029 127.998222,43.222904   C135.275864,41.717957 134.483429,49.406563 138.704590,51.505215   C138.704590,48.968338 138.704590,46.308067 138.704590,43.317169   C140.276062,43.211040 141.461563,43.130978 143.002075,43.026939   C143.002075,48.203098 143.122406,53.011497 142.879227,57.801449   C142.840363,58.566521 141.172012,59.248859 139.719162,59.564075   C136.790222,55.606392 134.399094,52.054081 132.007980,48.501766   C131.710617,48.673576 131.413254,48.845387 131.115891,49.017197   C131.115891,52.623066 131.115891,56.228931 131.115891,59.834801  z"/>
<path fill="#FFFFFF" opacity="1.000000" stroke="none" d=" M109.000000,51.014759   C109.000000,48.219330 109.000000,45.911419 109.000000,43.302490   C112.577316,43.302490 115.974991,43.302490 119.688797,43.302490   C119.688797,44.357685 119.688797,45.530849 119.688797,46.268093   C117.287697,47.006004 115.152817,47.662098 113.017929,48.318192   C114.678474,49.140919 116.339020,49.963646 118.756592,51.161446   C118.761047,51.212158 118.865303,52.398861 118.978394,53.686207   C118.209511,53.826736 117.721191,53.847313 117.284714,54.008362   C115.852310,54.536888 114.438736,55.116428 113.017921,55.676361   C114.387367,56.117634 115.775482,56.509300 117.120384,57.015747   C118.212181,57.426884 119.252090,57.975803 120.315018,58.463615   C120.154854,58.898090 119.994690,59.332569 119.834526,59.767044   C116.409729,59.767044 112.984940,59.767044 109.000000,59.767044   C109.000000,57.033413 109.000000,54.267845 109.000000,51.014759  z"/>
<path fill="#E245C6" opacity="1.000000" stroke="none" d=" M60.831429,13.007285   C60.887959,15.824903 60.946026,18.642490 61.000671,21.460146   C61.088017,25.964285 58.842304,28.093969 54.375896,28.007406   C52.219097,27.965609 50.061089,27.986221 47.456310,27.558260   C48.008858,25.148663 49.008720,23.159380 50.008583,21.170099   C52.130993,20.996731 54.753780,21.424986 54.429440,17.374821   C56.831066,15.617450 58.831245,14.312367 60.831429,13.007285  z"/>
<path fill="#657ED3" opacity="1.000000" stroke="none" d=" M147.998947,37.835651   C146.667145,36.522446 144.467194,35.372608 144.182983,33.862270   C143.578186,30.648397 143.714401,27.130751 147.891968,25.339798   C148.014771,25.009008 147.978851,25.045019 148.396240,25.032152   C151.451630,24.528461 154.089645,24.037640 157.173050,23.463945   C156.738495,21.640135 156.310425,19.843540 156.218658,18.011787   C157.388031,17.643877 158.221100,17.311127 159.054169,16.978374   C162.690979,19.190565 161.939285,22.798349 161.557129,26.578129   C159.827499,27.664114 158.513657,28.328369 157.122025,28.606140   C156.142410,27.579254 155.087280,26.248329 154.363266,26.409040   C149.147598,27.566769 148.175598,31.285927 148.862274,36.100365   C148.405670,36.775780 148.202316,37.305717 147.998947,37.835651  z"/>
<path fill="#FEFBFD" opacity="1.000000" stroke="none" d=" M70.996796,59.841240   C69.858810,59.894424 68.720818,59.947613 67.168678,60.020153   C68.893051,54.967110 70.360222,50.175045 72.229317,45.545238   C72.683144,44.421089 74.467583,43.171059 75.627350,43.183411   C76.763519,43.195515 78.445282,44.513985 78.911407,45.657120   C80.762863,50.197708 82.232460,54.894001 84.000023,59.983192   C82.746674,59.983192 81.793358,59.983192 80.398804,59.545052   C78.610100,55.261257 77.262650,51.415596 75.509918,46.413265   C73.706917,51.777748 72.351852,55.809494 70.996796,59.841240  z"/>
<path fill="#FFFFFF" opacity="1.000000" stroke="none" d=" M57.909760,47.001076   C56.967346,48.996372 56.286491,50.964779 56.054249,52.984768   C55.811417,55.096851 56.000000,57.258537 56.000000,59.761738   C54.421772,59.869038 53.020401,59.964317 51.221210,60.086639   C51.221210,55.833633 51.221210,51.752567 51.221210,49.060619   C49.075302,46.879208 47.768799,45.551090 46.462296,44.222973   C46.755154,43.875008 47.048008,43.527042 47.340866,43.179077   C51.432575,43.179077 55.524284,43.179077 60.787823,43.179077   C59.733559,44.842743 59.051029,45.919800 57.909760,47.001076  z"/>
<path fill="#9867CC" opacity="1.000000" stroke="none" d=" M102.835884,26.995365   C103.102959,30.506237 103.370033,34.017109 103.662231,37.858215   C98.395889,36.870899 92.122925,41.506927 86.417557,36.331627   C87.419640,35.630180 88.263977,35.292858 89.108315,34.955536   C95.081421,37.214638 98.788857,36.593243 98.480896,27.426609   C100.240158,26.998457 101.538025,26.996912 102.835884,26.995365  z"/>
<path fill="#DA48C8" opacity="1.000000" stroke="none" d=" M69.958763,18.111845   C68.998718,17.720531 68.038681,17.329218 67.078636,16.937904   C67.575577,16.287233 68.237442,15.703547 68.534683,14.971758   C69.128883,13.508856 69.286415,11.830370 70.051003,10.483083   C71.508507,7.914797 72.893005,5.054173 75.089264,3.285006   C75.916481,2.618644 79.386688,4.177853 80.771652,5.587466   C81.915352,6.751526 81.762108,9.189859 82.183556,11.063543   C81.544136,11.344479 80.904716,11.625413 80.265297,11.906348   C78.919891,9.942169 77.574478,7.977990 76.229073,6.013811   C75.824196,5.997644 75.419319,5.981478 75.014442,5.965312   C74.680435,8.678644 74.346420,11.391977 73.701614,14.573879   C72.246796,16.065580 71.102783,17.088713 69.958763,18.111845  z"/>
<path fill="#CE4FC8" opacity="1.000000" stroke="none" d=" M40.910408,43.618584   C39.056992,43.771236 37.263111,43.615948 35.497734,43.300930   C30.376709,42.387123 26.451584,44.666321 22.515690,47.958801   C22.168364,45.885498 22.168364,43.761894 22.168364,41.425320   C27.235840,39.780399 34.425251,43.967537 37.426655,34.787647   C38.964283,38.441143 39.973625,40.839409 40.910408,43.618584  z"/>
<path fill="#FFFFFF" opacity="1.000000" stroke="none" d=" M92.022552,44.318283   C93.155350,43.486534 94.268433,43.127728 95.877335,42.609081   C95.877335,47.628704 95.877335,52.039898 95.877335,56.292240   C97.946671,56.993431 99.653946,57.571934 101.361214,58.150436   C101.222275,58.668049 101.083336,59.185661 100.944397,59.703274   C98.195488,59.703274 95.446571,59.703274 92.002838,59.703274   C92.002838,54.906437 92.002838,49.848827 92.022552,44.318283  z"/>
<path fill="#5485D5" opacity="1.000000" stroke="none" d=" M148.365692,38.030113   C148.202316,37.305717 148.405670,36.775780 149.232651,36.130119   C155.253220,37.585114 156.795395,36.110512 157.199799,28.992624   C158.513657,28.328369 159.827499,27.664114 161.488174,26.998825   C162.238617,29.975815 162.642258,32.953835 163.461334,35.928959   C163.911240,36.398857 163.945709,36.871651 163.919678,37.695728   C158.816925,38.106201 153.774689,38.165386 148.365692,38.030113  z"/>
<path fill="#9168CD" opacity="1.000000" stroke="none" d=" M114.983376,26.956133   C116.564507,24.223227 118.145638,21.490322 119.853760,18.068468   C119.986099,16.640413 119.991440,15.901305 119.996780,15.162197   C122.047096,15.162197 124.097404,15.162197 127.333069,15.162197   C124.424400,19.990349 122.086609,23.870888 119.056190,27.885502   C117.236832,27.665096 116.110100,27.310616 114.983376,26.956133  z"/>
<path fill="#7078D1" opacity="1.000000" stroke="none" d=" M137.835632,25.997116   C138.084625,29.861834 138.333618,33.726551 138.591660,37.731842   C136.634705,37.731842 133.936462,37.731842 132.129578,37.731842   C132.440750,34.300671 132.731644,31.093275 133.435333,27.399271   C135.177322,26.607481 136.506470,26.302299 137.835632,25.997116  z"/>
<path fill="#6081D3" opacity="1.000000" stroke="none" d=" M41.067287,21.915894   C41.534077,22.256390 42.000870,22.596884 42.571182,23.351759   C42.149502,25.194008 41.624310,26.621878 41.099113,28.049747   C39.909161,29.588549 38.719208,31.127348 37.293808,32.970612   C36.161812,31.536636 35.084328,30.171721 34.015465,28.020668   C34.055111,25.460501 34.086147,23.686470 34.464497,21.980015   C36.896973,22.003693 38.982128,21.959793 41.067287,21.915894  z"/>
<path fill="#E563A6" opacity="1.000000" stroke="none" d=" M71.443588,59.909180   C72.351852,55.809494 73.706917,51.777748 75.509918,46.413265   C77.262650,51.415596 78.610100,55.261257 80.012138,59.471039   C77.341270,59.882477 74.615829,59.929798 71.443588,59.909180  z"/>
<path fill="#876ECF" opacity="1.000000" stroke="none" d=" M114.692818,27.144716   C116.110100,27.310616 117.236832,27.665096 118.742813,28.032040   C117.892906,30.639320 116.663742,33.234138 115.716461,36.274292   C115.997581,37.093456 115.996819,37.467278 115.996056,37.841103   C113.511673,37.841103 111.027298,37.841103 108.035416,37.841103   C110.235832,34.209541 112.319046,30.771421 114.692818,27.144716  z"/>
<path fill="#7576CF" opacity="1.000000" stroke="none" d=" M158.830109,16.659233   C158.221100,17.311127 157.388031,17.643877 155.856720,17.979202   C153.420746,18.194710 150.902771,17.783590 150.120956,18.761087   C148.820663,20.386839 148.634323,22.903536 147.978851,25.045019   C147.978851,25.045019 148.014771,25.009008 148.038208,24.999601   C146.759064,24.446613 144.403336,23.981596 144.355804,23.344395   C144.224869,21.589062 144.537689,19.325502 145.608612,18.041990   C149.273315,13.649796 153.961609,14.619346 158.830109,16.659233  z"/>
<path fill="#AA5ECB" opacity="1.000000" stroke="none" d=" M102.904083,26.556583   C101.538025,26.996912 100.240158,26.998457 98.552963,26.999218   C97.732468,23.308165 97.301300,19.617893 96.800751,15.333856   C99.315514,14.368820 101.563095,15.268682 102.292702,18.790941   C102.787109,21.177736 102.763947,23.671745 102.904083,26.556583  z"/>
<path fill="#8471CF" opacity="1.000000" stroke="none" d=" M137.903961,25.553894   C136.506470,26.302299 135.177322,26.607481 133.506470,26.953892   C132.733856,23.338591 132.302902,19.682060 131.840576,15.759183   C135.454712,14.327098 137.869476,15.748866 137.992508,20.168541   C138.038330,21.814455 137.982010,23.463211 137.903961,25.553894  z"/>
<path fill="#FFC015" opacity="1.000000" stroke="none" d=" M131.561005,59.909149   C131.115891,56.228931 131.115891,52.623066 131.115891,49.017197   C131.413254,48.845387 131.710617,48.673576 132.007980,48.501766   C134.399094,52.054081 136.790222,55.606392 139.304382,59.494522   C136.953659,59.881390 134.479904,59.932446 131.561005,59.909149  z"/>
<path fill="#AE5ECE" opacity="1.000000" stroke="none" d=" M89.057617,34.497658   C88.263977,35.292858 87.419640,35.630180 86.234642,36.004349   C85.269691,32.648972 84.645401,29.256744 84.417648,25.393768   C86.163719,23.950378 87.513237,22.977743 88.862762,22.005110   C88.910812,26.016665 88.958870,30.028219 89.057617,34.497658  z"/>
<path fill="#C055CA" opacity="1.000000" stroke="none" d=" M88.933578,21.605928   C87.513237,22.977743 86.163719,23.950378 84.490173,24.959515   C83.663864,21.847733 83.161591,18.699453 82.652122,15.506057   C87.396034,14.593004 88.242012,15.286932 88.933578,21.605928  z"/>
<path fill="#A161CB" opacity="1.000000" stroke="none" d=" M119.547134,15.093824   C119.991440,15.901305 119.986099,16.640413 119.967743,17.748787   C116.440880,18.838003 112.927040,19.557953 109.260178,20.309256   C108.057297,16.443171 109.520744,14.492905 114.133728,14.956918   C115.774017,15.121912 117.442101,15.010621 119.547134,15.093824  z"/>
<path fill="#CE4FC8" opacity="1.000000" stroke="none" d=" M69.976074,18.519600   C71.102783,17.088713 72.246796,16.065580 73.750626,15.000287   C75.697411,15.278378 77.284386,15.598628 79.371452,16.019796   C77.177605,18.529373 72.327820,17.544176 73.537903,22.581644   C72.122314,22.998463 71.143555,22.997820 70.164787,22.997179   C70.107658,21.640572 70.050522,20.283962 69.976074,18.519600  z"/>
<path fill="#9168CD" opacity="1.000000" stroke="none" d=" M26.994026,27.842394   C24.303379,28.218809 21.959759,28.320141 21.956198,24.445198   C21.952951,20.910057 24.176195,20.913313 26.643906,20.994471   C27.474745,21.021795 28.306795,21.012348 29.526287,21.428358   C28.940865,23.838804 27.967445,25.840599 26.994026,27.842394  z"/>
<path fill="#D34CC8" opacity="1.000000" stroke="none" d=" M41.519066,28.027338   C41.624310,26.621878 42.149502,25.194008 42.841682,23.466667   C45.081158,22.452215 47.153648,21.737230 49.617363,21.096172   C49.008720,23.159380 48.008858,25.148663 47.004753,27.488134   C45.313343,27.893858 43.626175,27.949392 41.519066,28.027338  z"/>
<path fill="#A161CB" opacity="1.000000" stroke="none" d=" M27.425587,27.911072   C27.967445,25.840599 28.940865,23.838804 29.958801,21.499269   C31.034758,21.104929 32.066193,21.048328 33.549690,21.214287   C34.001747,21.436850 34.117180,21.912439 34.117180,21.912439   C34.086147,23.686470 34.055111,25.460501 33.990746,27.677380   C31.923992,28.073400 29.890570,28.026575 27.425587,27.911072  z"/>
<path fill="#7874CF" opacity="1.000000" stroke="none" d=" M116.449066,37.911835   C115.996819,37.467278 115.997581,37.093456 115.997208,36.439262   C118.571846,35.241791 122.430321,37.865826 123.810173,33.326656   C123.882385,33.089108 125.961502,33.207764 126.930923,33.597187   C127.466103,33.812176 128.083298,35.131676 127.874863,35.608543   C127.477806,36.516968 126.570290,37.763294 125.777855,37.837688   C122.840614,38.113457 119.863937,37.969093 116.449066,37.911835  z"/>
<path fill="#B659CA" opacity="1.000000" stroke="none" d=" M73.832535,30.996904   C74.326843,33.173080 74.821152,35.349258 75.363174,37.735519   C73.349068,37.735519 70.935410,37.735519 68.544258,37.735519   C69.036743,35.763622 69.528412,33.794998 70.459259,31.412989   C71.876472,30.998705 72.854507,30.997805 73.832535,30.996904  z"/>
<path fill="#09A8D8" opacity="1.000000" stroke="none" d=" M34.163498,17.990986   C33.570389,15.067275 34.254749,12.446081 37.475151,12.261235   C38.563744,12.198752 39.807438,14.838532 40.540504,16.677816   C38.121670,17.405172 36.142586,17.698080 34.163498,17.990986  z"/>
<path fill="#D34CC8" opacity="1.000000" stroke="none" d=" M60.905403,12.595013   C58.831245,14.312367 56.831066,15.617450 54.500580,16.965996   C54.123196,15.618179 54.076115,14.226895 54.429428,12.379223   C56.830784,10.617537 58.831745,9.312241 60.832710,8.006945   C60.881599,9.398877 60.930489,10.790810 60.905403,12.595013  z"/>
<path fill="#C055CA" opacity="1.000000" stroke="none" d=" M60.906296,7.661984   C58.831745,9.312241 56.830784,10.617537 54.499443,11.966503   C54.110367,11.286625 54.051666,10.563079 53.971069,9.475761   C55.436134,7.420673 56.923096,5.729356 58.764557,3.995121   C59.739330,5.073811 60.359608,6.195418 60.906296,7.661984  z"/>
<path fill="#229DDA" opacity="1.000000" stroke="none" d=" M34.093613,18.358505   C36.142586,17.698080 38.121670,17.405172 40.471199,17.063618   C40.897125,18.377172 40.952610,19.739376 41.037693,21.508736   C38.982128,21.959793 36.896973,22.003693 34.464497,21.980015   C34.117180,21.912439 34.001747,21.436850 33.937851,21.200857   C33.923874,20.218584 33.973797,19.472305 34.093613,18.358505  z"/>
<path fill="#C055CA" opacity="1.000000" stroke="none" d=" M73.903229,30.557121   C72.854507,30.997805 71.876472,30.998705 70.531693,30.999033   C70.116150,28.624342 70.067352,26.250225 70.091667,23.436642   C71.143555,22.997820 72.122314,22.998463 73.468109,22.997786   C73.881401,25.370089 73.927658,27.743713 73.903229,30.557121  z"/>


</svg>