<svg xmlns="http://www.w3.org/2000/svg" fill="#fff" id="Layer_1" data-name="Layer 1" viewBox="0 0 248 70" style="&#10;"><title>travipro</title><path d="M1085,703c-2.74,7-6.34,13.16-13.94,15.81-10,3.49-20.7-1.54-25-11.67-4.46-10.61,0-23.25,10-28.15,9.53-4.69,20.66-1,26,8.79,1.1,2,1.94,4.14,2.9,6.22Zm-20.13,7.7c3.17-7.27,6.14-14.07,9.66-22.12l-22.82,9.76C1059.4,701.52,1060.16,702.24,1064.87,710.7Z" transform="translate(-837 -666)"/><path d="M854,666v12.51l8,.55v8.33l-7.67.74c0,5.41-.36,10.73.1,16,.5,5.8,4.68,3.6,8.59,2.84l2.58,9.66c-5,.75-9.64,2.12-14.21,1.94-5.88-.22-8.8-4.06-9-10.53s0-12.95,0-19.59L837,687v-8l4.9-.38L843,666Z" transform="translate(-837 -666)"/><path d="M987,736V678.56c3.58-.32,3.58-.32,3.7,6.53,4.39-4.65,9.14-8,15.39-8s11.19,2.82,15,7.62c7.2,9,6.27,22.91-2,30.46s-17.79,6.25-28.15-3.86V736Zm4-38.39c0,11.67,5.5,18.4,15.11,18.48,8.81.07,15.86-7.76,15.85-17.62,0-9.6-7.64-17.72-16.56-17.63C996.12,680.94,991,687,991,697.61Z" transform="translate(-837 -666)"/><path d="M915.42,692.81c.33-7.77-6.8-9.32-20.06-2.67l-3.09-6.49c5.07-5.86,21.12-8,28.43-2.64,2.63,1.92,5.41,5.06,6,8.07,1.72,8.57,2.36,17.34,3.39,26a12.43,12.43,0,0,1-.15,2.38c-7.12,2.46-10.16,1.27-12.77-5.09-5.11,4.8-10.78,7.82-18,5.71-5.26-1.53-8.73-5.45-9.23-10.55-.55-5.48,1.73-10.05,6.68-11.6C902.53,694.11,909,693.82,915.42,692.81Zm-5.55,7.12c-5.45-.18-9,2.07-8.8,5.49s2.66,4.7,5.78,4.82c4.62.18,8.64-2.6,8.87-6.11C916,699.23,912.07,700.6,909.87,699.93Z" transform="translate(-837 -666)"/><path d="M968.42,679.43c-3.31,9.47-6.58,18.85-9.86,28.23a19.58,19.58,0,0,0-1.19,3.28c-.87,5.78-3.93,7.68-9.87,7.32-4.39-.26-6.3-1.49-7.64-5.65-3.62-11.2-7.79-22.23-11.76-33.41C940,678,940,678,943.05,688.67c1.77,6.2,3.6,12.39,5.85,20.1,2.42-8.26,4.42-15.17,6.47-22.07C958,677.75,958.05,677.75,968.42,679.43Z" transform="translate(-837 -666)"/><path d="M866.69,717.73V679.07H877l.38,5.55,13.43-8.17v12.26c-1,.14-1.91.22-2.84.42-10,2.18-10,4.5-9.68,11.46.26,5.61,0,11.23,0,17.14Z" transform="translate(-837 -666)"/><path d="M981.37,717.79H970.18v-38.6h11.19Z" transform="translate(-837 -666)"/><path d="M1033.12,686.5c4.18-5.26,8.16-9.35,15.7-7.36-1,.87-2,2.19-3.17,2.55-9.49,2.83-12.71,7-12.71,16.86,0,5.82.14,11.65-.11,17.46,0,1.18-1.56,2.29-2.4,3.43l-1.32-.82V678.41C1032.6,678.2,1032.6,678.2,1033.12,686.5Z" transform="translate(-837 -666)"/><path d="M1064.87,710.7c-4.71-8.46-5.47-9.18-13.16-12.36l22.82-9.76C1071,696.63,1068,703.43,1064.87,710.7Z" transform="translate(-837 -666)" fill="#fdbf0f"/></svg>